<svg width="24" height="24" viewBox="0 0 24 24" fill="none" xmlns="http://www.w3.org/2000/svg">
<path d="M13.6875 11.0859C13.9844 11.2031 14.2734 11.332 14.5547 11.4727C14.8359 11.6133 15.1094 11.7734 15.375 11.9531C15.2031 12.1406 15.0469 12.3359 14.9062 12.5391C14.7656 12.7422 14.6367 12.9609 14.5195 13.1953C13.918 12.8047 13.2773 12.5078 12.5977 12.3047C11.918 12.1016 11.2187 12 10.5 12C9.8125 12 9.14844 12.0898 8.50781 12.2695C7.86719 12.4492 7.26953 12.6992 6.71484 13.0195C6.16016 13.3398 5.65625 13.7305 5.20312 14.1914C4.75 14.6523 4.35938 15.1602 4.03125 15.7148C3.70312 16.2695 3.44922 16.8672 3.26953 17.5078C3.08984 18.1484 3 18.8125 3 19.5H1.5C1.5 18.5625 1.63672 17.6602 1.91016 16.793C2.18359 15.9258 2.57812 15.125 3.09375 14.3906C3.60938 13.6562 4.21875 13.0039 4.92188 12.4336C5.625 11.8633 6.42188 11.4141 7.3125 11.0859C6.42969 10.5078 5.74219 9.78125 5.25 8.90625C4.75781 8.03125 4.50781 7.0625 4.5 6C4.5 5.17188 4.65625 4.39453 4.96875 3.66797C5.28125 2.94141 5.70703 2.30469 6.24609 1.75781C6.78516 1.21094 7.42187 0.78125 8.15625 0.46875C8.89063 0.15625 9.67188 0 10.5 0C11.3281 0 12.1055 0.15625 12.832 0.46875C13.5586 0.78125 14.1953 1.20703 14.7422 1.74609C15.2891 2.28516 15.7188 2.92187 16.0312 3.65625C16.3437 4.39063 16.5 5.17188 16.5 6C16.5 6.51562 16.4375 7.01953 16.3125 7.51172C16.1875 8.00391 16 8.46875 15.75 8.90625C15.5 9.34375 15.207 9.74609 14.8711 10.1133C14.5352 10.4805 14.1406 10.8047 13.6875 11.0859ZM6 6C6 6.625 6.11719 7.20703 6.35156 7.74609C6.58594 8.28516 6.90625 8.76172 7.3125 9.17578C7.71875 9.58984 8.19531 9.91406 8.74219 10.1484C9.28906 10.3828 9.875 10.5 10.5 10.5C11.1172 10.5 11.6992 10.3828 12.2461 10.1484C12.793 9.91406 13.2695 9.59375 13.6758 9.1875C14.082 8.78125 14.4063 8.30469 14.6484 7.75781C14.8906 7.21094 15.0078 6.625 15 6C15 5.38281 14.8828 4.80078 14.6484 4.25391C14.4141 3.70703 14.0938 3.23047 13.6875 2.82422C13.2812 2.41797 12.8008 2.09375 12.2461 1.85156C11.6914 1.60938 11.1094 1.49219 10.5 1.5C9.875 1.5 9.29297 1.61719 8.75391 1.85156C8.21484 2.08594 7.73828 2.40625 7.32422 2.8125C6.91016 3.21875 6.58594 3.69922 6.35156 4.25391C6.11719 4.80859 6 5.39062 6 6ZM23.25 15.75C23.25 16.1563 23.1875 16.5508 23.0625 16.9336C22.9375 17.3164 22.75 17.6719 22.5 18V24L19.5 22.5L16.5 24V18C16.2578 17.6719 16.0742 17.3164 15.9492 16.9336C15.8242 16.5508 15.7578 16.1563 15.75 15.75C15.75 15.2344 15.8477 14.75 16.043 14.2969C16.2383 13.8437 16.5039 13.4492 16.8398 13.1133C17.1758 12.7773 17.5742 12.5078 18.0352 12.3047C18.4961 12.1016 18.9844 12 19.5 12C20.0156 12 20.5 12.0977 20.9531 12.293C21.4063 12.4883 21.8008 12.7578 22.1367 13.1016C22.4727 13.4453 22.7422 13.8437 22.9453 14.2969C23.1484 14.75 23.25 15.2344 23.25 15.75ZM19.5 13.5C19.1875 13.5 18.8945 13.5586 18.6211 13.6758C18.3477 13.793 18.1094 13.9531 17.9062 14.1562C17.7031 14.3594 17.543 14.5977 17.4258 14.8711C17.3086 15.1445 17.25 15.4375 17.25 15.75C17.25 16.0625 17.3086 16.3555 17.4258 16.6289C17.543 16.9023 17.7031 17.1406 17.9062 17.3438C18.1094 17.5469 18.3477 17.707 18.6211 17.8242C18.8945 17.9414 19.1875 18 19.5 18C19.8125 18 20.1055 17.9414 20.3789 17.8242C20.6523 17.707 20.8906 17.5469 21.0938 17.3438C21.2969 17.1406 21.457 16.9023 21.5742 16.6289C21.6914 16.3555 21.75 16.0625 21.75 15.75C21.75 15.4375 21.6914 15.1445 21.5742 14.8711C21.457 14.5977 21.2969 14.3594 21.0938 14.1562C20.8906 13.9531 20.6523 13.793 20.3789 13.6758C20.1055 13.5586 19.8125 13.5 19.5 13.5ZM21 21.5742V19.1836C20.5312 19.3945 20.0312 19.5 19.5 19.5C18.9688 19.5 18.4688 19.3945 18 19.1836V21.5742C18.25 21.4492 18.5 21.3281 18.75 21.2109C19 21.0938 19.25 20.9648 19.5 20.8242C19.75 20.957 20 21.082 20.25 21.1992C20.5 21.3164 20.75 21.4414 21 21.5742Z" fill="black"/>
</svg>
