<svg width="16" height="24" viewBox="0 0 16 24" fill="none" xmlns="http://www.w3.org/2000/svg">
<path d="M3.54 19.27C3.18 19.27 2.89 19.2267 2.67 19.14C2.45 19.06 2.27 18.9667 2.13 18.86C1.99667 18.7467 1.88333 18.65 1.79 18.57C1.70333 18.4833 1.61333 18.44 1.52 18.44C1.34 18.44 1.25 18.6267 1.25 19H0.6V15.58H1.29C1.30333 15.7267 1.34 15.9233 1.4 16.17C1.46667 16.41 1.56 16.6667 1.68 16.94C1.8 17.2133 1.94667 17.4733 2.12 17.72C2.3 17.96 2.50333 18.16 2.73 18.32C2.96333 18.4733 3.23 18.55 3.53 18.55C3.80333 18.55 4.02 18.4933 4.18 18.38C4.34 18.26 4.45333 18.0867 4.52 17.86C4.59333 17.6267 4.63 17.3467 4.63 17.02C4.63 16.6067 4.54 16.1967 4.36 15.79C4.18667 15.3767 3.94333 14.9433 3.63 14.49C3.31667 14.03 2.95667 13.5433 2.55 13.03C2.03 12.3567 1.62667 11.7433 1.34 11.19C1.06 10.6367 0.866667 10.1133 0.76 9.62C0.653333 9.12 0.6 8.62333 0.6 8.13C0.6 7.39667 0.723333 6.78333 0.97 6.29C1.22333 5.79 1.55 5.41333 1.95 5.16C2.35 4.90667 2.77333 4.78 3.22 4.78C3.61333 4.78 3.91333 4.84 4.12 4.96C4.33333 5.08 4.5 5.20333 4.62 5.33C4.74667 5.45 4.86667 5.51 4.98 5.51C5.06667 5.51 5.13 5.47667 5.17 5.41C5.21667 5.33667 5.24333 5.2 5.25 5H5.9V8.4H5.21C5.19667 8.18667 5.14667 7.92 5.06 7.6C4.98 7.27333 4.86 6.95 4.7 6.63C4.54 6.30333 4.34 6.03333 4.1 5.82C3.86 5.6 3.58 5.49 3.26 5.49C2.90667 5.49 2.63667 5.62 2.45 5.88C2.26333 6.13333 2.17 6.49667 2.17 6.97C2.17 7.32333 2.24667 7.69667 2.4 8.09C2.56 8.48333 2.79333 8.90667 3.1 9.36C3.41333 9.80667 3.79333 10.2933 4.24 10.82C4.7 11.3533 5.08 11.8767 5.38 12.39C5.68 12.9033 5.90333 13.43 6.05 13.97C6.20333 14.5033 6.28 15.07 6.28 15.67C6.28 16.37 6.2 16.9533 6.04 17.42C5.88 17.88 5.66667 18.2467 5.4 18.52C5.13333 18.7867 4.83667 18.9767 4.51 19.09C4.19 19.21 3.86667 19.27 3.54 19.27ZM7.26641 19V18.31H8.20641V5.69H7.26641V5H11.3064C11.7064 5 12.0964 5.05667 12.4764 5.17C12.8564 5.28333 13.1997 5.46667 13.5064 5.72C13.8131 5.96667 14.0564 6.29667 14.2364 6.71C14.4231 7.11667 14.5164 7.61 14.5164 8.19C14.5164 8.76333 14.4297 9.25667 14.2564 9.67C14.0897 10.0833 13.8764 10.4267 13.6164 10.7C13.3564 10.9667 13.0831 11.1733 12.7964 11.32C12.5097 11.46 12.2431 11.5467 11.9964 11.58C12.2431 11.5867 12.5231 11.65 12.8364 11.77C13.1564 11.89 13.4664 12.0833 13.7664 12.35C14.0664 12.61 14.3131 12.96 14.5064 13.4C14.7064 13.84 14.8064 14.3833 14.8064 15.03C14.8064 15.9433 14.6497 16.6933 14.3364 17.28C14.0231 17.86 13.6197 18.2933 13.1264 18.58C12.6397 18.86 12.1297 19 11.5964 19H7.26641ZM10.5664 18.31H11.0564C11.2631 18.31 11.4597 18.19 11.6464 17.95C11.8397 17.7033 11.9964 17.3367 12.1164 16.85C12.2431 16.3633 12.3064 15.76 12.3064 15.04C12.3064 14.2133 12.2397 13.5767 12.1064 13.13C11.9797 12.6833 11.8164 12.3733 11.6164 12.2C11.4231 12.0267 11.2264 11.94 11.0264 11.94H10.5664V18.31ZM10.5664 11.25H11.0264C11.2531 11.25 11.4497 11.1533 11.6164 10.96C11.7831 10.76 11.9097 10.4367 11.9964 9.99C12.0831 9.54333 12.1264 8.94333 12.1264 8.19C12.1264 7.51667 12.0697 7 11.9564 6.64C11.8431 6.28 11.6964 6.03333 11.5164 5.9C11.3431 5.76 11.1631 5.69 10.9764 5.69H10.5664V11.25Z" fill="black"/>
</svg>
