<svg width="16" height="16" viewBox="0 0 16 16" fill="none" xmlns="http://www.w3.org/2000/svg">
<path d="M2.66667 5.66667V8.66667M12.6667 5.66667V8.66667M1 2H14.3333V4.66667L13.8673 4.94667C13.5047 5.16425 13.0897 5.27919 12.6668 5.27919C12.2439 5.27919 11.829 5.16425 11.4663 4.94667L11 4.66667L10.534 4.94667C10.1714 5.16425 9.75641 5.27919 9.3335 5.27919C8.91059 5.27919 8.49564 5.16425 8.133 4.94667L7.66667 4.66667L7.20067 4.94667C6.83803 5.16425 6.42307 5.27919 6.00017 5.27919C5.57726 5.27919 5.1623 5.16425 4.79967 4.94667L4.33333 4.66667L3.867 4.94667C3.5044 5.16419 3.08951 5.27909 2.66667 5.27909C2.24383 5.27909 1.82893 5.16419 1.46633 4.94667L1 4.66667V2ZM1.66667 8.66667H13.6667V14.6667H1.66667V8.66667Z" stroke="black" stroke-width="0.8" stroke-linecap="round" stroke-linejoin="round"/>
</svg>
