<svg width="16" height="17" viewBox="0 0 16 17" fill="none" xmlns="http://www.w3.org/2000/svg">
<path d="M2.04589 16.0313C1.86182 15.9161 1.66394 15.8389 1.55055 15.6505C1.46367 15.5061 1.39436 15.3608 1.39446 15.1858C1.39604 12.3738 1.39553 9.56181 1.39596 6.7498C1.39599 6.50081 1.51986 6.38185 1.75976 6.39594C1.91901 6.40529 2.0293 6.51311 2.04064 6.67415C2.04466 6.73117 2.04213 6.78867 2.04213 6.84595C2.04217 9.51215 2.04214 12.1783 2.04219 14.8446C2.04219 14.8966 2.03953 14.949 2.04388 15.0007C2.06584 15.2622 2.18978 15.3816 2.4513 15.3949C2.49286 15.397 2.5346 15.3956 2.57626 15.3956C6.20584 15.3956 9.83541 15.3956 13.465 15.3956C13.5171 15.3956 13.5694 15.3982 13.6212 15.394C13.8804 15.3731 14.0027 15.2482 14.0191 14.9879C14.0227 14.9308 14.0204 14.8733 14.0204 14.816C14.0204 10.27 14.0205 5.72389 14.0204 1.17781C14.0204 0.786853 13.901 0.667822 13.5085 0.667768C11.4776 0.667487 9.44666 0.661578 7.41584 0.673681C7.13123 0.675377 6.97904 0.391402 7.10097 0.170178C7.13473 0.108935 7.19 0.0870171 7.24227 0.038709C9.50065 0.031254 11.7513 0.031254 14.0244 0.0383021C14.0966 0.0731948 14.1471 0.0996985 14.1959 0.129105C14.4802 0.300393 14.6652 0.541399 14.6654 0.882326C14.668 5.6494 14.6669 10.4165 14.6683 15.1836C14.6684 15.2962 14.6381 15.3966 14.5947 15.4981C14.4834 15.7581 14.2617 15.8987 14.0312 16.0313C10.041 16.0313 6.05077 16.0313 2.04589 16.0313Z" fill="black"/>
<path d="M4.48535 0.03125C4.68226 0.100484 4.86801 0.161813 5.04616 0.240378C5.67459 0.517522 6.12588 0.976443 6.36572 1.61823C6.71508 2.55308 6.60604 3.44679 5.98258 4.22957C5.49856 4.83728 4.84399 5.1544 4.04796 5.17182C3.41946 5.18558 2.8531 5.02402 2.3669 4.6327C1.74917 4.13552 1.41573 3.48949 1.39202 2.68316C1.37339 2.04927 1.54045 1.48215 1.93007 0.985905C2.2626 0.562383 2.69059 0.269031 3.20928 0.114088C3.29863 0.0873964 3.38925 0.0649581 3.48964 0.0359025C3.82357 0.03125 4.14714 0.03125 4.48535 0.03125ZM4.30209 0.714635C3.99582 0.682486 3.68953 0.675779 3.39381 0.775047C2.36396 1.12075 1.77515 2.23768 2.20384 3.29294C2.54186 4.12502 3.34609 4.62023 4.26486 4.47714C5.22547 4.32753 5.88255 3.45833 5.87214 2.56176C5.86217 1.70213 5.18488 0.878639 4.30209 0.714635Z" fill="black"/>
<path d="M11.1335 3.83131C10.716 3.04723 10.0998 2.50263 9.2884 2.17431C8.77647 1.96718 8.24226 1.92649 7.69855 1.95063C7.60553 1.95475 7.51609 1.98874 7.42059 1.98021C7.2443 1.96446 7.1235 1.84406 7.11454 1.66809C7.10355 1.45198 7.19391 1.32699 7.39056 1.30385C8.242 1.20366 9.0631 1.28972 9.84745 1.66824C10.6668 2.06362 11.2866 2.66573 11.7215 3.45273C12.1375 4.20561 12.2761 5.03058 12.1902 5.87803C12.092 6.84661 11.6916 7.68683 10.9975 8.38264C10.3295 9.05236 9.53246 9.45473 8.59464 9.57545C7.76166 9.68267 6.95723 9.57648 6.20168 9.20435C5.41307 8.81594 4.80089 8.23646 4.36986 7.46268C4.13702 7.0447 3.99358 6.60125 3.90288 6.13656C3.86812 5.95848 3.99658 5.77857 4.1778 5.74358C4.35779 5.70883 4.53095 5.82041 4.5709 6.0124C4.64965 6.39076 4.76405 6.75556 4.956 7.09261C5.06076 7.27656 5.16183 7.46394 5.32679 7.62498C5.45449 7.49759 5.53734 7.3411 5.64997 7.20889C5.93821 6.87056 6.28619 6.61644 6.6848 6.43082C6.87968 6.34006 6.87864 6.35458 6.76325 6.17139C6.59268 5.90059 6.46913 5.61358 6.48804 5.28132C6.50503 4.98265 6.46462 4.68464 6.57412 4.38816C6.78159 3.82648 7.36093 3.41558 7.95683 3.39071C8.70504 3.35947 9.41281 3.83312 9.54496 4.62104C9.63949 5.18463 9.65718 5.77851 9.22059 6.25849C9.2073 6.2731 9.19978 6.29295 9.18001 6.32664C9.37165 6.43592 9.57168 6.51895 9.75256 6.63774C10.0858 6.85657 10.3786 7.11337 10.6001 7.4467C10.7315 7.6444 10.7365 7.6479 10.8688 7.46481C11.2843 6.88965 11.5066 6.25098 11.5233 5.53676C11.5372 4.9366 11.4138 4.37336 11.1335 3.83131ZM8.60373 6.88472C8.40264 6.82111 8.19552 6.82065 7.98765 6.82409C7.13689 6.83818 6.48062 7.21757 5.99119 7.89825C5.80708 8.15431 5.81598 8.16136 6.08356 8.33717C6.16142 8.38832 6.23947 8.43959 6.32035 8.48567C7.01705 8.88263 7.76541 9.00661 8.55424 8.89487C9.14135 8.81171 9.66624 8.57476 10.1411 8.22312C10.194 8.18398 10.2112 8.13791 10.1756 8.07533C10.0622 7.87648 9.93618 7.68286 9.76972 7.5285C9.44289 7.22542 9.06655 6.99988 8.60373 6.88472ZM7.23296 4.59324C7.1418 4.83522 7.12748 5.08012 7.16271 5.33816C7.20992 5.68388 7.52112 6.04611 7.86113 6.10959C8.23402 6.17921 8.64047 5.98213 8.79979 5.64739C8.91609 5.40304 8.93006 5.14881 8.90326 4.87761C8.86529 4.4934 8.56312 4.15381 8.16706 4.07963C7.80871 4.01251 7.42347 4.2202 7.23296 4.59324Z" fill="black"/>
<path d="M7.8125 10.7078C8.86348 10.7079 9.89885 10.7075 10.9342 10.7087C11.1171 10.7089 11.2057 10.7856 11.2485 10.9689C11.2799 11.1033 11.2082 11.2535 11.087 11.3252C11.033 11.3572 10.9777 11.3547 10.9213 11.3547C9.44372 11.3551 7.96612 11.3553 6.48852 11.3544C6.26381 11.3543 6.14476 11.2366 6.14653 11.0241C6.14824 10.8197 6.26518 10.7088 6.48577 10.7082C6.9228 10.7069 7.35984 10.7078 7.8125 10.7078Z" fill="black"/>
<path d="M11.2118 12.6107C11.3355 12.8607 11.168 13.116 10.8671 13.1127C9.40967 13.0967 7.95193 13.1058 6.4943 13.1047C6.21595 13.1045 6.07718 12.9015 6.17265 12.6428C6.2233 12.5056 6.32843 12.4578 6.46513 12.4579C6.91804 12.458 7.37095 12.4578 7.82386 12.4578C8.84941 12.4578 9.87496 12.4589 10.9005 12.4566C11.029 12.4563 11.1358 12.4842 11.2118 12.6107Z" fill="black"/>
<path d="M5.04729 11.352C4.87801 11.3014 4.81071 11.1798 4.80832 11.0316C4.80649 10.9179 4.84412 10.8085 4.96257 10.7467C5.08216 10.6843 5.28233 10.688 5.37314 10.7742C5.48628 10.8817 5.50269 11.0145 5.45351 11.1596C5.40177 11.3123 5.28844 11.3621 5.13856 11.3548C5.11263 11.3536 5.08662 11.3538 5.04729 11.352Z" fill="black"/>
<path d="M5.18158 12.4581C5.39467 12.4939 5.47961 12.5906 5.4789 12.7812C5.47826 12.9533 5.37506 13.084 5.22432 13.1035C5.00607 13.1318 4.88279 13.0612 4.8265 12.8756C4.77656 12.7109 4.84122 12.5585 4.98576 12.4825C5.04591 12.4509 5.10692 12.4625 5.18158 12.4581Z" fill="black"/>
<path d="M1.39599 5.61675C1.36509 5.3179 1.54208 5.20136 1.82691 5.24212C1.95599 5.26059 2.03991 5.3799 2.04205 5.53806C2.04465 5.73102 1.96692 5.85637 1.82757 5.88393C1.59368 5.93018 1.44358 5.84192 1.39599 5.61675Z" fill="black"/>
<path d="M4.1881 3.21936C4.06079 3.33489 3.96499 3.46803 3.82711 3.55602C3.66016 3.66255 3.51321 3.65996 3.3733 3.52782C3.18029 3.34551 2.99179 3.15787 2.81009 2.96433C2.67816 2.8238 2.68411 2.61019 2.80775 2.4838C2.92926 2.35959 3.16482 2.35462 3.30095 2.48786C3.40418 2.58891 3.49015 2.70759 3.59561 2.8324C3.82758 2.60351 4.01957 2.41468 4.21085 2.22513C4.33662 2.10049 4.46015 1.97356 4.58685 1.84987C4.75717 1.6836 4.95319 1.66965 5.09735 1.81065C5.24139 1.95152 5.2325 2.17146 5.06821 2.33822C4.77947 2.63133 4.48689 2.92064 4.1881 3.21936Z" fill="black"/>
</svg>
