<svg width="24" height="24" viewBox="0 0 24 24" fill="none" xmlns="http://www.w3.org/2000/svg">
<g clip-path="url(#clip0_41_6)">
<path d="M6.90855 7.71428C7.81787 7.71428 8.68994 7.35306 9.33292 6.71008C9.9759 6.0671 10.3371 5.19502 10.3371 4.28571C10.3371 3.3764 9.9759 2.50433 9.33292 1.86134C8.68994 1.21836 7.81787 0.85714 6.90855 0.85714C5.99924 0.85714 5.12717 1.21836 4.48419 1.86134C3.8412 2.50433 3.47998 3.3764 3.47998 4.28571C3.47998 5.19502 3.8412 6.0671 4.48419 6.71008C5.12717 7.35306 5.99924 7.71428 6.90855 7.71428Z" stroke="black" stroke-width="1.71429" stroke-linecap="round" stroke-linejoin="round"/>
<path d="M9.79886 18.0411L9.16115 23.1429H4.67486L3.81772 16.2857H0.90686V13.7143C0.907089 12.2176 1.46668 10.7751 2.47579 9.66975C3.48491 8.56444 4.87069 7.87619 6.36116 7.74007C7.85163 7.60395 9.33916 8.02979 10.5318 8.93401C11.7245 9.83824 12.5361 11.1556 12.8074 12.6274M15.7303 15.5794V14.4651C15.7303 14.0105 15.9109 13.5744 16.2324 13.253C16.5539 12.9315 16.9899 12.7509 17.4446 12.7509H18.1509C18.6055 12.7509 19.0416 12.9315 19.363 13.253C19.6845 13.5744 19.8651 14.0105 19.8651 14.4651V15.5794M12.5057 17.0914C12.5057 16.2566 13.1829 15.5794 14.0177 15.5794H21.5811C22.416 15.5794 23.0931 16.2566 23.0931 17.0931V21.6309C23.0931 22.0319 22.9338 22.4164 22.6503 22.7C22.3667 22.9836 21.9822 23.1429 21.5811 23.1429H14.0177C13.6167 23.1429 13.2321 22.9836 12.9486 22.7C12.665 22.4164 12.5057 22.0319 12.5057 21.6309V17.0914Z" stroke="black" stroke-width="1.71429" stroke-linecap="round" stroke-linejoin="round"/>
</g>
<defs>
<clipPath id="clip0_41_6">
<rect width="24" height="24" fill="white"/>
</clipPath>
</defs>
</svg>
