<svg width="16" height="16" viewBox="0 0 16 16" fill="none" xmlns="http://www.w3.org/2000/svg">
<path d="M7 3.66666C7 3.57826 7.03512 3.49347 7.09763 3.43096C7.16014 3.36845 7.24493 3.33333 7.33333 3.33333H8.66667C8.75507 3.33333 8.83986 3.36845 8.90237 3.43096C8.96488 3.49347 9 3.57826 9 3.66666C9 3.75507 8.96488 3.83985 8.90237 3.90236C8.83986 3.96488 8.75507 3.99999 8.66667 3.99999H7.33333C7.24493 3.99999 7.16014 3.96488 7.09763 3.90236C7.03512 3.83985 7 3.75507 7 3.66666Z" fill="black"/>
<path fill-rule="evenodd" clip-rule="evenodd" d="M11.1213 6.17333C11.0003 6.26833 10.8433 6.34433 10.654 6.406C10.6902 6.77632 10.6485 7.15011 10.5317 7.50336C10.4148 7.8566 10.2252 8.18148 9.97527 8.45709C9.7253 8.7327 9.42042 8.95295 9.08023 9.10368C8.74005 9.25441 8.37208 9.33227 8 9.33227C7.62791 9.33227 7.25995 9.25441 6.91976 9.10368C6.57957 8.95295 6.27469 8.7327 6.02473 8.45709C5.77476 8.18148 5.58523 7.8566 5.46834 7.50336C5.35145 7.15011 5.30977 6.77632 5.346 6.406C5.15666 6.34433 4.99966 6.26833 4.879 6.17333C4.72233 6.05 4.61733 5.88533 4.605 5.68733C4.59333 5.50367 4.666 5.34767 4.73866 5.23767C4.8104 5.13348 4.89558 5.03922 4.992 4.95733C5.03866 4.91633 5.08466 4.88 5.12733 4.84833C5.11466 4.78 5.10066 4.69733 5.08666 4.60167C5.02761 4.18149 4.99865 3.75764 5 3.33333C5 3.22867 5.04466 3.15067 5.06533 3.11767C5.09133 3.076 5.122 3.04033 5.15 3.01167C5.20566 2.95333 5.27766 2.894 5.35666 2.837C5.51666 2.721 5.73666 2.59067 5.998 2.46867C6.519 2.22533 7.23466 2 8 2C8.76566 2 9.481 2.22567 10.002 2.46867C10.2267 2.57143 10.4414 2.69473 10.6433 2.837C10.7223 2.894 10.7943 2.95367 10.85 3.01167C10.878 3.04033 10.9087 3.076 10.9347 3.11767C10.9553 3.15067 11 3.22867 11 3.33333C11 3.86733 10.9567 4.3 10.9133 4.60167C10.8993 4.69733 10.8853 4.78 10.8727 4.84833C10.9153 4.88 10.9617 4.91633 11.0083 4.95733C11.0917 5.03033 11.187 5.12533 11.2613 5.23767C11.3343 5.34767 11.4067 5.50367 11.3953 5.68767C11.383 5.88533 11.278 6.05 11.1213 6.17333ZM5.66733 3.43933C5.67233 3.88867 5.70966 4.252 5.74666 4.506C5.75533 4.566 5.764 4.61933 5.772 4.66667H10.228C10.2363 4.61933 10.2447 4.56567 10.2533 4.506C10.29 4.252 10.3277 3.88867 10.3327 3.43933C10.3067 3.4174 10.2799 3.39649 10.2523 3.37667C10.132 3.28967 9.94933 3.18 9.72 3.073C9.259 2.85767 8.64133 2.66667 8 2.66667C7.35866 2.66667 6.741 2.85767 6.28 3.073C6.05066 3.18 5.868 3.28967 5.748 3.37633C5.72028 3.39637 5.69337 3.4175 5.66733 3.43967M5.596 5.33333L5.595 5.334C5.53747 5.37234 5.48236 5.41419 5.43 5.45933C5.37066 5.51133 5.32333 5.562 5.29466 5.606C5.28784 5.6159 5.28172 5.62625 5.27633 5.637C5.28105 5.64131 5.28594 5.64542 5.291 5.64933C5.341 5.68867 5.44833 5.74633 5.65766 5.80333C5.699 5.81467 5.74333 5.82533 5.79066 5.836L5.79366 5.83667C5.961 5.87367 6.167 5.90667 6.418 5.93267C6.77366 5.96967 7.22133 5.994 7.78066 5.99933L8 6C9.07566 6 9.77133 5.933 10.2067 5.83667L10.2093 5.836C10.257 5.82533 10.3013 5.81467 10.3427 5.80333C10.5517 5.74667 10.6593 5.68867 10.709 5.64933C10.714 5.64542 10.7189 5.64131 10.7237 5.637C10.7184 5.62627 10.7124 5.61591 10.7057 5.606C10.6669 5.55152 10.6213 5.50223 10.57 5.45933C10.5177 5.4142 10.4628 5.37234 10.4053 5.334L10.404 5.33333H5.596ZM7.90933 6.66667C8.79 6.66667 9.47266 6.62 9.996 6.53867C10.0132 6.81044 9.97472 7.08286 9.88292 7.33924C9.79112 7.59561 9.64793 7.83054 9.46213 8.02962C9.27632 8.2287 9.05182 8.38774 8.80238 8.497C8.55295 8.60625 8.28382 8.66341 8.01151 8.66498C7.7392 8.66655 7.46944 8.61249 7.21875 8.50612C6.96807 8.39975 6.74176 8.2433 6.55367 8.04637C6.36559 7.84945 6.2197 7.61618 6.12495 7.36088C6.03021 7.10558 5.98859 6.83362 6.00266 6.56167C6.49033 6.629 7.11533 6.66667 7.90933 6.66667ZM5.35933 12.959C5.34196 13.083 5.33327 13.2081 5.33333 13.3333V13.6667C5.33337 13.7399 5.30926 13.8112 5.26473 13.8694C5.2202 13.9276 5.15774 13.9695 5.087 13.9886C5.01626 14.0077 4.9412 14.003 4.87341 13.9752C4.80562 13.9474 4.74889 13.898 4.712 13.8347C4.48734 13.9565 4.22446 13.9874 3.97766 13.921L3.33366 13.7483C3.07758 13.6796 2.85928 13.512 2.72677 13.2823C2.59425 13.0527 2.55836 12.7798 2.627 12.5237L2.88566 11.5577C2.95433 11.3015 3.12193 11.0831 3.35159 10.9506C3.58125 10.818 3.85418 10.782 4.11033 10.8507L4.75433 11.023C4.97833 11.083 5.16433 11.2147 5.29366 11.3867C5.60224 10.9571 6.0087 10.6073 6.4794 10.3662C6.95009 10.125 7.47146 9.99952 8.00033 10C8.52892 9.99965 9.04999 10.1252 9.52043 10.3662C9.99087 10.6072 10.3972 10.9568 10.7057 11.386C10.8396 11.2083 11.0293 11.0806 11.2443 11.0233L11.8883 10.851C12.1444 10.7824 12.4173 10.8183 12.647 10.9508C12.8766 11.0833 13.0443 11.3016 13.113 11.5577L13.372 12.524C13.406 12.6509 13.4146 12.7832 13.3975 12.9134C13.3803 13.0436 13.3377 13.1691 13.272 13.2828C13.2063 13.3966 13.1189 13.4962 13.0147 13.5762C12.9104 13.6561 12.7915 13.7147 12.6647 13.7487L12.021 13.921C11.7746 13.9875 11.5122 13.9569 11.2877 13.8357C11.2507 13.8989 11.1938 13.9482 11.126 13.9759C11.0582 14.0036 10.9832 14.0081 10.9125 13.9889C10.8418 13.9697 10.7794 13.9277 10.735 13.8694C10.6905 13.8112 10.6665 13.7399 10.6667 13.6667V13.3333C10.6667 13.2081 10.658 13.083 10.6407 12.959L8.906 13.424C8.82548 13.5963 8.69747 13.7422 8.53699 13.8443C8.37651 13.9465 8.19023 14.0007 8 14.0007C7.80977 14.0007 7.62348 13.9465 7.463 13.8443C7.30253 13.7422 7.17452 13.5963 7.094 13.424L5.35933 12.959ZM7.04 12.719C7.08474 12.567 7.16485 12.4278 7.27378 12.3128C7.38271 12.1978 7.51735 12.1103 7.66666 12.0573V10.6873C7.19911 10.7464 6.75554 10.9283 6.38102 11.2143C6.0065 11.5004 5.71438 11.8805 5.53433 12.316L7.04 12.719ZM10.4657 12.3157C10.2856 11.8802 9.99343 11.5002 9.61891 11.2142C9.24439 10.9282 8.80084 10.7464 8.33333 10.6873V12.057C8.63466 12.1637 8.87 12.4103 8.96 12.7193L10.4657 12.3157ZM11.1813 12.0757C11.17 12.0334 11.1671 11.9893 11.1728 11.9459C11.1785 11.9025 11.1927 11.8606 11.2146 11.8227C11.2365 11.7848 11.2656 11.7515 11.3003 11.7249C11.3351 11.6982 11.3747 11.6787 11.417 11.6673L12.061 11.4947C12.1464 11.4719 12.2373 11.4839 12.3138 11.5281C12.3903 11.5722 12.4461 11.645 12.469 11.7303L12.728 12.6963C12.7393 12.7386 12.7422 12.7827 12.7365 12.8261C12.7308 12.8695 12.7166 12.9114 12.6947 12.9493C12.6729 12.9872 12.6437 13.0205 12.609 13.0471C12.5743 13.0738 12.5346 13.0933 12.4923 13.1047L11.8483 13.2773C11.806 13.2887 11.7619 13.2916 11.7185 13.2858C11.675 13.2801 11.6332 13.2659 11.5953 13.244C11.5573 13.222 11.5241 13.1929 11.4975 13.1581C11.4708 13.1233 11.4513 13.0837 11.44 13.0413L11.1813 12.0757ZM3.938 11.4947C3.89569 11.4833 3.85155 11.4803 3.80811 11.486C3.76466 11.4917 3.72276 11.5059 3.68481 11.5278C3.64685 11.5497 3.61358 11.5788 3.5869 11.6136C3.56023 11.6483 3.54066 11.688 3.52933 11.7303L3.27066 12.696C3.25932 12.7383 3.25642 12.7824 3.26212 12.8258C3.26783 12.8692 3.28203 12.9111 3.30391 12.949C3.3258 12.9869 3.35494 13.0201 3.38967 13.0468C3.4244 13.0734 3.46404 13.093 3.50633 13.1043L4.15033 13.277C4.19262 13.2883 4.23672 13.2912 4.28013 13.2855C4.32354 13.2798 4.3654 13.2656 4.40331 13.2437C4.44123 13.2219 4.47447 13.1927 4.50112 13.158C4.52778 13.1233 4.54733 13.0836 4.55866 13.0413L4.81733 12.0753C4.82872 12.033 4.83166 11.9889 4.82598 11.9454C4.8203 11.902 4.80611 11.8601 4.78422 11.8221C4.76233 11.7842 4.73318 11.7509 4.69842 11.7242C4.66366 11.6976 4.62399 11.678 4.58166 11.6667L3.938 11.4947ZM8.33333 13C8.33333 13.0884 8.29821 13.1732 8.2357 13.2357C8.17319 13.2982 8.0884 13.3333 8 13.3333C7.91159 13.3333 7.82681 13.2982 7.76429 13.2357C7.70178 13.1732 7.66666 13.0884 7.66666 13C7.66666 12.9116 7.70178 12.8268 7.76429 12.7643C7.82681 12.7018 7.91159 12.6667 8 12.6667C8.0884 12.6667 8.17319 12.7018 8.2357 12.7643C8.29821 12.8268 8.33333 12.9116 8.33333 13Z" fill="black"/>
</svg>
