<svg width="16" height="16" viewBox="0 0 16 16" fill="none" xmlns="http://www.w3.org/2000/svg">
<g clip-path="url(#clip0_1_6)">
<path d="M3.12865 3.216C3.76271 2.56659 4.52042 2.05077 5.35707 1.69896C6.19373 1.34716 7.09238 1.16651 7.99999 1.16767C11.7647 1.16767 14.8167 4.21934 14.8167 7.984C14.8167 11.7487 11.7647 14.8007 7.99999 14.8007C4.23532 14.8007 1.18332 11.7487 1.18332 7.984C1.18332 6.66867 1.55632 5.44034 2.20165 4.39867" stroke="black" stroke-width="0.8" stroke-linecap="round" stroke-linejoin="round"/>
<path d="M10.273 7.94133C10.273 8.13524 10.196 8.32122 10.0588 8.45834C9.92173 8.59546 9.73575 8.67249 9.54184 8.67249C9.34792 8.67249 9.16194 8.59546 9.02482 8.45834C8.8877 8.32122 8.81067 8.13524 8.81067 7.94133C8.81067 7.53766 9.138 7.21033 9.54167 7.21033C9.94534 7.21033 10.273 7.53766 10.273 7.94133Z" stroke="black" stroke-width="0.8" stroke-linecap="round" stroke-linejoin="round"/>
<path d="M8.21633 5.68001H11.7863C12.032 5.67947 12.2679 5.77655 12.442 5.94989C12.6162 6.12322 12.7144 6.35863 12.715 6.60434V9.27434C12.7154 9.52005 12.6183 9.75588 12.4449 9.92996C12.2715 10.104 12.036 10.2021 11.7903 10.2027H8.21633C7.97062 10.2032 7.73476 10.1061 7.56061 9.93279C7.38646 9.75945 7.28828 9.52405 7.28766 9.27834V6.60834C7.2874 6.48665 7.31111 6.3661 7.35743 6.25357C7.40376 6.14104 7.4718 6.03874 7.55766 5.9525C7.64352 5.86627 7.74553 5.79779 7.85786 5.75098C7.97019 5.70416 8.09064 5.67993 8.21233 5.67967L8.21633 5.68001Z" stroke="black" stroke-width="0.8" stroke-linecap="round" stroke-linejoin="round"/>
<path d="M11.95 10.1873V11.104C11.9503 11.2257 11.9266 11.3463 11.8804 11.4588C11.8341 11.5713 11.7661 11.6737 11.6802 11.7599C11.5944 11.8462 11.4924 11.9147 11.3801 11.9616C11.2678 12.0084 11.1474 12.0327 11.0257 12.033H4.80334C4.68165 12.0333 4.56109 12.0096 4.44856 11.9632C4.33604 11.9169 4.23373 11.8489 4.1475 11.763C4.06126 11.6771 3.99279 11.5751 3.94597 11.4628C3.89916 11.3505 3.87493 11.23 3.87467 11.1083V4.864C3.87441 4.74231 3.89812 4.62176 3.94444 4.50923C3.99077 4.3967 4.05881 4.2944 4.14467 4.20816C4.23053 4.12193 4.33254 4.05345 4.44487 4.00664C4.5572 3.95983 4.67765 3.9356 4.79934 3.93533H11.021C11.2667 3.93489 11.5025 4.03205 11.6766 4.20545C11.8507 4.37885 11.9488 4.61429 11.9493 4.86V5.69467M0.483337 5.521L2.28167 4.20367L2.52334 6.41967" stroke="black" stroke-width="0.8" stroke-linecap="round" stroke-linejoin="round"/>
</g>
<defs>
<clipPath id="clip0_1_6">
<rect width="16" height="16" fill="white"/>
</clipPath>
</defs>
</svg>
