<svg width="16" height="16" viewBox="0 0 16 16" fill="none" xmlns="http://www.w3.org/2000/svg">
<path d="M3.96333 10.4477H2.803L1.5 12.5913H14.214L12.911 10.4477H12.3983" stroke="black" stroke-width="0.6" stroke-linecap="round" stroke-linejoin="round"/>
<path d="M9.36367 6.71367L5.41933 5.543L3.59467 11.69H12.0297L13.1713 7.844L10.5493 7.06567" stroke="black" stroke-width="0.6" stroke-linecap="round" stroke-linejoin="round"/>
<path d="M10.8407 5.07101C10.591 5.57034 9.61065 6.39867 9.52532 6.52634C9.43999 6.65401 8.72199 7.28134 9.20265 7.68334C9.68332 8.08534 10.439 7.11701 10.6827 6.95267C10.9263 6.78834 12.1193 6.46567 12.3753 6.25267C12.6313 6.03967 12.984 5.81401 13.0753 5.58867L12.576 4.00534C12.576 4.00534 10.4267 3.96867 10.1403 4.00534C9.85399 4.04201 8.65265 5.65001 8.83132 6.13034C9.04465 6.70301 9.78332 6.26601 9.78332 6.26601" stroke="black" stroke-width="0.6" stroke-linecap="round" stroke-linejoin="round"/>
<path d="M12.576 4.00566L13.7027 3.40866L14.5 5.54299L13.0753 5.58866" stroke="black" stroke-width="0.6" stroke-linecap="round" stroke-linejoin="round"/>
</svg>
