<svg width="24" height="24" viewBox="0 0 24 24" fill="none" xmlns="http://www.w3.org/2000/svg">
<path d="M17.7853 1.12809L16.47 5.22529L17.7951 5.50378L17.6499 6.2234L15.2007 8.46604L12.7866 6.44456L11.6895 6.2527C12.0747 5.58098 12.3778 4.71661 12.4585 3.92798C12.9282 3.82111 14.0954 3.66196 14.6191 3.45646C14.3849 2.97436 13.2037 2.664 12.3363 2.69165C12.2551 1.72073 11.9201 1.32975 10.7353 1.38375C9.5505 1.4377 9.18975 1.69317 9.32156 3.09107C8.43722 3.28453 7.53577 3.68245 7.45875 4.36064C7.82766 4.34625 9.00375 4.22489 9.36769 4.2195C9.39862 4.88043 9.57394 5.52482 9.83503 5.92457L8.187 5.63746L4.96875 9.18384L8.59425 11.803L8.67042 12.5925L7.06777 22.7058H8.86659L10.6626 14.7722L12.9067 22.7058H14.6631L14.496 21.9367L15.2973 22.7058L18.2533 7.58714C18.4882 7.37432 18.6876 7.18959 18.8202 7.05689C18.8285 6.56296 18.7013 6.16898 18.5814 5.90845L18.627 5.67867L19.9037 5.94698L20.2995 1.58212L19.2286 4.80623L18.7201 4.70048L19.0312 1.29464L18.0202 4.55479L17.4944 4.44543L17.7853 1.12809ZM19.0312 1.29464L19.0312 1.29417H19.0312V1.29464ZM8.57081 7.19015L8.58694 10.1946L7.11038 9.08132L8.57081 7.19015ZM12.6973 8.18634L15.082 10.3396C15.082 10.3396 16.1598 9.42764 17.1855 8.5335L14.4931 21.9192L12.4863 12.66L12.6973 8.18634Z" fill="black"/>
</svg>
