<svg width="16" height="16" viewBox="0 0 16 16" fill="none" xmlns="http://www.w3.org/2000/svg">
<g clip-path="url(#clip0_24_112)">
<path d="M12.911 5.062C12.6925 3.91958 12.0826 2.88908 11.1862 2.14788C10.2899 1.40669 9.16313 1.00119 8.00001 1.00119C6.83689 1.00119 5.71016 1.40669 4.81379 2.14788C3.91741 2.88908 3.30749 3.91958 3.08901 5.062C2.16619 5.22626 1.33841 5.73033 0.76892 6.47481C0.199425 7.21928 -0.0704476 8.15013 0.0125233 9.08377C0.0954943 10.0174 0.525286 10.8861 1.21714 11.5185C1.90899 12.1509 2.81269 12.5011 3.75001 12.5H4.00001V11.5H3.75001C3.03629 11.5019 2.34984 11.226 1.83594 10.7307C1.32203 10.2354 1.02097 9.55961 0.996482 8.84631C0.971991 8.133 1.22598 7.43815 1.70471 6.90879C2.18344 6.37944 2.84934 6.0571 3.56151 6.01L3.97951 5.9815L4.02451 5.565C4.13121 4.58515 4.59601 3.67921 5.32973 3.02106C6.06344 2.3629 7.01436 1.9989 8.00001 1.9989C8.98566 1.9989 9.93658 2.3629 10.6703 3.02106C11.404 3.67921 11.8688 4.58515 11.9755 5.565L12.0205 5.9815L12.4385 6.0105C13.1492 6.05947 13.8132 6.38255 14.2903 6.91159C14.7674 7.44064 15.0204 8.13431 14.996 8.84631C14.9715 9.5583 14.6715 10.233 14.1593 10.7281C13.647 11.2231 12.9624 11.4999 12.25 11.5H12V12.5H12.25C13.1873 12.5011 14.091 12.1509 14.7829 11.5185C15.4747 10.8861 15.9045 10.0174 15.9875 9.08377C16.0705 8.15013 15.8006 7.21928 15.2311 6.47481C14.6616 5.73033 13.8338 5.22626 12.911 5.062Z" fill="black"/>
<path d="M11.5 11V10H10.4495C10.385 9.68701 10.2607 9.3894 10.0835 9.1235L10.8285 8.3785L10.1215 7.6715L9.3765 8.4165C9.1106 8.23926 8.81299 8.11498 8.5 8.0505V7H7.5V8.0505C7.18701 8.11498 6.8894 8.23926 6.6235 8.4165L5.8785 7.6715L5.1715 8.3785L5.9165 9.1235C5.73926 9.3894 5.61498 9.68701 5.5505 10H4.5V11H5.5505C5.61498 11.313 5.73926 11.6106 5.9165 11.8765L5.1715 12.6215L5.8785 13.3285L6.6235 12.5835C6.8894 12.7607 7.18701 12.885 7.5 12.9495V14H8.5V12.9495C8.81299 12.885 9.1106 12.7607 9.3765 12.5835L10.1215 13.3285L10.8285 12.6215L10.0835 11.8765C10.2607 11.6106 10.385 11.313 10.4495 11H11.5ZM8 12C7.70333 12 7.41332 11.912 7.16664 11.7472C6.91997 11.5824 6.72771 11.3481 6.61418 11.074C6.50065 10.7999 6.47094 10.4983 6.52882 10.2074C6.5867 9.91639 6.72956 9.64912 6.93934 9.43934C7.14912 9.22956 7.41639 9.0867 7.70736 9.02882C7.99834 8.97094 8.29994 9.00065 8.57403 9.11418C8.84811 9.22771 9.08238 9.41997 9.2472 9.66665C9.41203 9.91332 9.5 10.2033 9.5 10.5C9.4996 10.8977 9.34144 11.279 9.06022 11.5602C8.779 11.8414 8.3977 11.9996 8 12Z" fill="black"/>
</g>
<defs>
<clipPath id="clip0_24_112">
<rect width="16" height="16" fill="white"/>
</clipPath>
</defs>
</svg>
