<svg width="16" height="16" viewBox="0 0 16 16" fill="none" xmlns="http://www.w3.org/2000/svg">
<g clip-path="url(#clip0_24_100)">
<path d="M15.4432 16L10.2887 10.8454C9.87709 11.1961 9.40378 11.4675 8.86873 11.6595C8.33368 11.8516 7.79589 11.9476 7.25535 11.9476C5.93721 11.9476 4.82157 11.4913 3.90842 10.5787C2.99527 9.66558 2.5387 8.55021 2.5387 7.23262C2.5387 5.91502 2.99472 4.7991 3.90677 3.88486C4.81937 2.97006 5.93447 2.51266 7.25206 2.51266C8.5702 2.51266 9.6864 2.96924 10.6006 3.88239C11.5149 4.79554 11.972 5.91146 11.972 7.23015C11.972 7.80196 11.8708 8.35539 11.6683 8.89044C11.4652 9.42549 11.1991 9.88316 10.8698 10.2635L16.0244 15.4172L15.4432 16ZM7.25535 11.1237C8.3474 11.1237 9.26961 10.7477 10.022 9.99593C10.7738 9.24412 11.1497 8.32192 11.1497 7.22932C11.1497 6.13727 10.7738 5.21535 10.022 4.46353C9.27015 3.71172 8.34822 3.33582 7.25618 3.33582C6.16413 3.33582 5.24193 3.71172 4.48957 4.46353C3.73775 5.21535 3.36185 6.13727 3.36185 7.22932C3.36185 8.32137 3.73775 9.2433 4.48957 9.99511C5.24138 10.7469 6.16331 11.1237 7.25535 11.1237Z" fill="black"/>
<path d="M5.69226 8.8889C5.59004 8.8889 5.50471 8.85467 5.43626 8.78623C5.36767 8.71764 5.33337 8.63223 5.33337 8.53001V6.13668C5.33337 6.03445 5.36767 5.94912 5.43626 5.88068C5.50471 5.81208 5.59004 5.77779 5.69226 5.77779H8.97449C9.07671 5.77779 9.16204 5.81208 9.23049 5.88068C9.29908 5.94912 9.33337 6.03445 9.33337 6.13668V8.53001C9.33337 8.63223 9.29915 8.71756 9.23071 8.78601C9.16211 8.8546 9.07671 8.8889 8.97449 8.8889H5.69226ZM7.33337 7.3589L5.5556 6.19668V8.53001C5.5556 8.56986 5.56841 8.6026 5.59404 8.62823C5.61967 8.65386 5.65241 8.66667 5.69226 8.66667H8.97449C9.01434 8.66667 9.04708 8.65386 9.07271 8.62823C9.09834 8.6026 9.11115 8.56986 9.11115 8.53001V6.19668L7.33337 7.3589ZM7.33337 7.11112L9.04271 6.00001H5.62404L7.33337 7.11112ZM5.5556 6.19668V6.00001V8.53001C5.5556 8.56986 5.56841 8.6026 5.59404 8.62823C5.61967 8.65386 5.65241 8.66667 5.69226 8.66667H5.5556V6.19668Z" fill="black"/>
</g>
<defs>
<clipPath id="clip0_24_100">
<rect width="16" height="16" fill="white"/>
</clipPath>
</defs>
</svg>
