<svg width="16" height="16" viewBox="0 0 16 16" fill="none" xmlns="http://www.w3.org/2000/svg">
<path d="M3.07667 14C2.77 14 2.514 13.8973 2.30867 13.692C2.10289 13.4862 2 13.23 2 12.9233V7.07667C2 6.77 2.10289 6.514 2.30867 6.30867C2.514 6.10289 2.77 6 3.07667 6H12.9233C13.23 6 13.486 6.10289 13.6913 6.30867C13.8971 6.514 14 6.77 14 7.07667V12.9233C14 13.23 13.8973 13.486 13.692 13.6913C13.4862 13.8971 13.23 14 12.9233 14H3.07667ZM3.07667 13.3333H12.9233C13.0256 13.3333 13.1196 13.2907 13.2053 13.2053C13.2907 13.1196 13.3333 13.0256 13.3333 12.9233V7.07667C13.3333 6.97444 13.2907 6.88044 13.2053 6.79467C13.1196 6.70933 13.0256 6.66667 12.9233 6.66667H3.07667C2.97444 6.66667 2.88044 6.70933 2.79467 6.79467C2.70933 6.88044 2.66667 6.97444 2.66667 7.07667V12.9233C2.66667 13.0256 2.70933 13.1196 2.79467 13.2053C2.88044 13.2907 2.97444 13.3333 3.07667 13.3333ZM7.414 11.7653L9.73733 10.2187C9.82 10.1609 9.86133 10.088 9.86133 10C9.86133 9.912 9.82 9.83889 9.73733 9.78067L7.414 8.234C7.32022 8.17355 7.22778 8.16755 7.13667 8.216C7.04556 8.26444 7 8.34244 7 8.45V11.55C7 11.6576 7.04556 11.7356 7.13667 11.784C7.22778 11.8324 7.32022 11.8262 7.414 11.7653ZM3.33333 4.82067C3.23867 4.82067 3.15933 4.78889 3.09533 4.72533C3.03178 4.66133 3 4.58178 3 4.48667C3 4.39155 3.03178 4.31222 3.09533 4.24867C3.15933 4.18511 3.23867 4.15333 3.33333 4.15333H12.6667C12.7613 4.15333 12.8407 4.18511 12.9047 4.24867C12.9682 4.31222 13 4.39155 13 4.48667C13 4.58133 12.9682 4.66067 12.9047 4.72467C12.8407 4.78822 12.7613 4.82 12.6667 4.82L3.33333 4.82067ZM5.33333 2.974C5.23867 2.974 5.15933 2.94222 5.09533 2.87867C5.03178 2.81511 5 2.736 5 2.64133C5 2.54622 5.03178 2.46689 5.09533 2.40333C5.15933 2.33978 5.23867 2.308 5.33333 2.308H10.6667C10.7613 2.308 10.8407 2.33978 10.9047 2.40333C10.9682 2.46689 11 2.54622 11 2.64133C11 2.736 10.9682 2.81511 10.9047 2.87867C10.8407 2.94267 10.7613 2.97467 10.6667 2.97467L5.33333 2.974Z" fill="black"/>
</svg>
