<svg width="16" height="16" viewBox="0 0 16 16" fill="none" xmlns="http://www.w3.org/2000/svg">
<g clip-path="url(#clip0_24_110)">
<path d="M4 6C4.53043 6 5.03914 5.78929 5.41421 5.41421C5.78929 5.03914 6 4.53043 6 4M4 6C3.46957 6 2.96086 5.78929 2.58579 5.41421C2.21071 5.03914 2 4.53043 2 4M4 6V8M6 4C6 3.46957 5.78929 2.96086 5.41421 2.58579C5.03914 2.21071 4.53043 2 4 2M6 4H8M4 2C3.46957 2 2.96086 2.21071 2.58579 2.58579C2.21071 2.96086 2 3.46957 2 4M4 2V0M2 4H0M1.33333 1.33333L2.66667 2.66667M5.33333 5.33333L6.66667 6.66667M6.66667 1.33333L5.33333 2.66667M2.66667 5.33333L1.33333 6.66667M12 8C12.5304 8 13.0391 7.78929 13.4142 7.41421C13.7893 7.03914 14 6.53043 14 6M12 8C11.4696 8 10.9609 7.78929 10.5858 7.41421C10.2107 7.03914 10 6.53043 10 6M12 8V10M14 6C14 5.46957 13.7893 4.96086 13.4142 4.58579C13.0391 4.21071 12.5304 4 12 4M14 6H16M12 4C11.4696 4 10.9609 4.21071 10.5858 4.58579C10.2107 4.96086 10 5.46957 10 6M12 4V2M10 6H8M9.33333 3.33333L10.6667 4.66667M13.3333 7.33333L14.6667 8.66667M14.6667 3.33333L13.3333 4.66667M10.6667 7.33333L9.33333 8.66667M6 14C6.53043 14 7.03914 13.7893 7.41421 13.4142C7.78929 13.0391 8 12.5304 8 12M6 14C5.46957 14 4.96086 13.7893 4.58579 13.4142C4.21071 13.0391 4 12.5304 4 12M6 14V16M8 12C8 11.4696 7.78929 10.9609 7.41421 10.5858C7.03914 10.2107 6.53043 10 6 10M8 12H10M6 10C5.46957 10 4.96086 10.2107 4.58579 10.5858C4.21071 10.9609 4 11.4696 4 12M6 10V8M4 12H2M3.33333 9.33333L4.66667 10.6667M7.33333 13.3333L8.66667 14.6667M8.66667 9.33333L7.33333 10.6667M4.66667 13.3333L3.33333 14.6667" stroke="black" stroke-width="1.33333"/>
</g>
<defs>
<clipPath id="clip0_24_110">
<rect width="16" height="16" fill="white"/>
</clipPath>
</defs>
</svg>
