<svg width="24" height="24" viewBox="0 0 24 24" fill="none" xmlns="http://www.w3.org/2000/svg">
<path d="M7.616 21V20C7.17133 20 6.791 19.8417 6.475 19.525C6.159 19.2083 6.00067 18.8287 6 18.386V8.616C6 8.172 6.15833 7.792 6.475 7.476C6.79167 7.16 7.17167 7.00133 7.615 7H9.904V4.577C9.904 4.37033 9.98067 4.19033 10.134 4.037C10.2873 3.88367 10.467 3.807 10.673 3.807H13.327C13.5337 3.807 13.7137 3.88367 13.867 4.037C14.0203 4.19033 14.097 4.37033 14.097 4.577V7H16.385C16.829 7 17.209 7.15833 17.525 7.475C17.841 7.79167 17.9993 8.17167 18 8.615V18.385C18 18.829 17.8417 19.209 17.525 19.525C17.2083 19.841 16.8283 19.9993 16.385 20V21H15.385V20H8.615V21H7.616ZM10.904 7H13.096V4.808H10.904V7ZM12 12.385C12.8833 12.385 13.746 12.2723 14.588 12.047C15.43 11.8217 16.234 11.4843 17 11.035V8.615C17 8.43567 16.9423 8.28833 16.827 8.173C16.7117 8.05767 16.5643 8 16.385 8H7.615C7.43567 8 7.28833 8.05767 7.173 8.173C7.05767 8.28833 7 8.436 7 8.616V11.035C7.76667 11.485 8.571 11.8223 9.413 12.047C10.255 12.2717 11.1173 12.3843 12 12.385ZM11.5 14.385V13.373C10.7107 13.3157 9.94067 13.1907 9.19 12.998C8.43933 12.8053 7.70933 12.529 7 12.169V18.385C7 18.5643 7.05767 18.7117 7.173 18.827C7.28833 18.9423 7.436 19 7.616 19H16.385C16.5643 19 16.7117 18.9423 16.827 18.827C16.9423 18.7117 17 18.5643 17 18.385V12.169C16.29 12.529 15.56 12.8053 14.81 12.998C14.06 13.1907 13.29 13.3157 12.5 13.373V14.385H11.5Z" fill="black"/>
</svg>
