<svg width="16" height="16" viewBox="0 0 16 16" fill="none" xmlns="http://www.w3.org/2000/svg">
<path d="M14 5.49999C13.8576 5.50045 13.7169 5.53149 13.5875 5.59099L12.417 4.75499C12.4696 4.59172 12.4976 4.42152 12.5 4.24999C12.4976 4.07847 12.4696 3.90826 12.417 3.74499L13.5875 2.90899C13.7841 2.99786 14.0042 3.0207 14.2148 2.97409C14.4254 2.92749 14.6153 2.81395 14.7561 2.65045C14.8968 2.48696 14.9809 2.28229 14.9957 2.06706C15.0104 1.85183 14.9551 1.6376 14.838 1.45641C14.7209 1.27522 14.5483 1.13681 14.346 1.06188C14.1437 0.986944 13.9226 0.979513 13.7157 1.0407C13.5088 1.10188 13.3273 1.22839 13.1983 1.40131C13.0693 1.57422 12.9997 1.78426 13 1.99999C13 2.03199 13.0065 2.06199 13.0095 2.09349L11.8635 2.91149C11.5524 2.64748 11.158 2.50175 10.75 2.49999C10.2859 2.49999 9.84075 2.68437 9.51256 3.01256C9.18438 3.34074 9 3.78586 9 4.24999C9 4.71412 9.18438 5.15924 9.51256 5.48743C9.84075 5.81562 10.2859 5.99999 10.75 5.99999C11.158 5.99823 11.5524 5.85251 11.8635 5.58849L13.0095 6.40699C13.0065 6.43799 13 6.46799 13 6.49999C13 6.69777 13.0587 6.89111 13.1685 7.05556C13.2784 7.22001 13.4346 7.34818 13.6173 7.42387C13.8 7.49956 14.0011 7.51936 14.1951 7.48078C14.3891 7.44219 14.5673 7.34695 14.7071 7.2071C14.847 7.06725 14.9422 6.88906 14.9808 6.69508C15.0194 6.5011 14.9996 6.30004 14.9239 6.11731C14.8482 5.93458 14.72 5.7784 14.5556 5.66852C14.3911 5.55864 14.1978 5.49999 14 5.49999ZM10.75 4.99999C10.6017 4.99999 10.4567 4.95601 10.3333 4.87359C10.21 4.79118 10.1139 4.67405 10.0571 4.53701C10.0003 4.39996 9.98547 4.24916 10.0144 4.10367C10.0434 3.95819 10.1148 3.82455 10.2197 3.71966C10.3246 3.61477 10.4582 3.54334 10.6037 3.5144C10.7492 3.48546 10.9 3.50032 11.037 3.55708C11.1741 3.61385 11.2912 3.70998 11.3736 3.83331C11.456 3.95665 11.5 4.10166 11.5 4.24999C11.4997 4.44882 11.4206 4.63944 11.28 4.78003C11.1394 4.92063 10.9488 4.99973 10.75 4.99999ZM14.669 9.96699L10.803 8.57749L9.187 6.54849C9.04649 6.37669 8.86948 6.23834 8.66884 6.14346C8.46819 6.04859 8.24894 5.99958 8.027 5.99999H4.029C3.78448 5.99991 3.54366 6.05964 3.32753 6.17399C3.11139 6.28833 2.92651 6.45381 2.789 6.65599L1.433 8.64749C1.15058 9.06196 0.999677 9.55195 1 10.0535V13C1 13.1326 1.05268 13.2598 1.14645 13.3535C1.24022 13.4473 1.36739 13.5 1.5 13.5H2.571C2.67977 13.9291 2.92852 14.3097 3.27789 14.5816C3.62726 14.8534 4.05731 15.0011 4.5 15.0011C4.94269 15.0011 5.37274 14.8534 5.72211 14.5816C6.07149 14.3097 6.32023 13.9291 6.429 13.5H9.571C9.67977 13.9291 9.92852 14.3097 10.2779 14.5816C10.6273 14.8534 11.0573 15.0011 11.5 15.0011C11.9427 15.0011 12.3727 14.8534 12.7221 14.5816C13.0715 14.3097 13.3202 13.9291 13.429 13.5H14.5C14.6326 13.5 14.7598 13.4473 14.8536 13.3535C14.9473 13.2598 15 13.1326 15 13V10.4375C15 10.3345 14.9682 10.2341 14.9089 10.1499C14.8497 10.0657 14.7659 10.0018 14.669 9.96699ZM4.5 14C4.30222 14 4.10888 13.9413 3.94443 13.8315C3.77998 13.7216 3.65181 13.5654 3.57612 13.3827C3.50043 13.2 3.48063 12.9989 3.51922 12.8049C3.5578 12.6109 3.65304 12.4327 3.79289 12.2929C3.93275 12.153 4.11093 12.0578 4.30491 12.0192C4.49889 11.9806 4.69996 12.0004 4.88268 12.0761C5.06541 12.1518 5.22159 12.28 5.33147 12.4444C5.44135 12.6089 5.5 12.8022 5.5 13C5.4996 13.2651 5.39412 13.5192 5.20667 13.7067C5.01922 13.8941 4.7651 13.9996 4.5 14ZM11.5 14C11.3022 14 11.1089 13.9413 10.9444 13.8315C10.78 13.7216 10.6518 13.5654 10.5761 13.3827C10.5004 13.2 10.4806 12.9989 10.5192 12.8049C10.5578 12.6109 10.653 12.4327 10.7929 12.2929C10.9327 12.153 11.1109 12.0578 11.3049 12.0192C11.4989 11.9806 11.7 12.0004 11.8827 12.0761C12.0654 12.1518 12.2216 12.28 12.3315 12.4444C12.4414 12.6089 12.5 12.8022 12.5 13C12.4996 13.2651 12.3941 13.5192 12.2067 13.7067C12.0192 13.8941 11.7651 13.9996 11.5 14ZM14 12.5H13.429C13.3202 12.0709 13.0715 11.6903 12.7221 11.4184C12.3727 11.1465 11.9427 10.9989 11.5 10.9989C11.0573 10.9989 10.6273 11.1465 10.2779 11.4184C9.92852 11.6903 9.67977 12.0709 9.571 12.5H6.429C6.32023 12.0709 6.07149 11.6903 5.72211 11.4184C5.37274 11.1465 4.94269 10.9989 4.5 10.9989C4.05731 10.9989 3.62726 11.1465 3.27789 11.4184C2.92852 11.6903 2.67977 12.0709 2.571 12.5H2V10.0535C1.99995 9.75243 2.09055 9.45833 2.26 9.20949L3.6155 7.21899C3.66134 7.15153 3.72298 7.09631 3.79505 7.05814C3.86713 7.01997 3.94744 7 4.029 6.99999H8.027C8.09979 6.99977 8.17174 7.01555 8.23776 7.04622C8.30377 7.0769 8.36223 7.12171 8.409 7.17749L10.109 9.31149C10.1668 9.38406 10.2437 9.43912 10.331 9.47049L14 10.789V12.5Z" fill="black"/>
</svg>
