<svg width="16" height="16" viewBox="0 0 16 16" fill="none" xmlns="http://www.w3.org/2000/svg">
<path d="M9.78561 7.2H10.8C10.9061 7.2 11.0078 7.24214 11.0828 7.31716C11.1579 7.39217 11.2 7.49392 11.2 7.6C11.2 7.70609 11.1579 7.80783 11.0828 7.88285C11.0078 7.95786 10.9061 8 10.8 8H5.20001C5.09392 8 4.99218 7.95786 4.91716 7.88285C4.84215 7.80783 4.80001 7.70609 4.80001 7.6C4.80001 7.49392 4.84215 7.39217 4.91716 7.31716C4.99218 7.24214 5.09392 7.2 5.20001 7.2H5.80561C5.69239 7.07441 5.62188 6.91617 5.6042 6.748C5.58652 6.57984 5.62258 6.4104 5.70721 6.264L7.70721 2.8C7.8133 2.61626 7.98803 2.48219 8.19297 2.42728C8.39791 2.37237 8.61626 2.40112 8.80001 2.5072L10.8784 3.7072C11.0621 3.81329 11.1962 3.98803 11.2511 4.19296C11.306 4.3979 11.2773 4.61626 11.1712 4.8L9.78561 7.2ZM10.4784 4.4L8.40001 3.2L6.40001 6.664L7.32801 7.2H8.86241L10.4784 4.4ZM11.168 6.4L11.6296 5.6C11.7488 5.60448 11.8654 5.63553 11.971 5.6909C12.0766 5.74627 12.1685 5.82454 12.24 5.92L14.24 8.5864C14.3439 8.72488 14.4 8.89331 14.4 9.0664V12.8C14.4 13.0122 14.3157 13.2157 14.1657 13.3657C14.0157 13.5157 13.8122 13.6 13.6 13.6H2.40001C2.18783 13.6 1.98435 13.5157 1.83432 13.3657C1.68429 13.2157 1.60001 13.0122 1.60001 12.8V9.0664C1.60001 8.89331 1.65615 8.72488 1.76001 8.5864L3.76001 5.92C3.83452 5.82065 3.93115 5.74 4.04224 5.68446C4.15332 5.62892 4.27581 5.6 4.40001 5.6H5.17041L4.78721 6.264C4.76223 6.3073 4.74134 6.35283 4.72481 6.4H4.40001L2.60001 8.8H13.4L11.6 6.4H11.168ZM2.40001 12.8H13.6V9.6H2.40001V12.8Z" fill="black"/>
</svg>
