<svg width="16" height="16" viewBox="0 0 16 16" fill="none" xmlns="http://www.w3.org/2000/svg">
<path d="M15.8367 14.1749H15.4178V3.43513C15.4178 3.34496 15.3447 3.27187 15.2546 3.27187H0.712849C0.622678 3.27187 0.549584 3.34496 0.549584 3.43513V14.1749H0.163265C0.0730939 14.1749 0 14.248 0 14.3381V14.7787C0 14.8688 0.0730939 14.942 0.163265 14.942H15.8367C15.9269 14.942 16 14.8688 16 14.7787V14.3381C16 14.248 15.9269 14.1749 15.8367 14.1749ZM1.97984 13.0315C1.97984 13.1217 1.90674 13.1948 1.81657 13.1948H1.15618C1.06601 13.1948 0.992914 13.1217 0.992914 13.0315V12.3711C0.992914 12.281 1.06601 12.2079 1.15618 12.2079H1.81657C1.90674 12.2079 1.97984 12.281 1.97984 12.3711V13.0315ZM1.97984 11.6334C1.97984 11.7235 1.90674 11.7966 1.81657 11.7966H1.15618C1.06601 11.7966 0.992914 11.7235 0.992914 11.6334V10.973C0.992914 10.8828 1.06601 10.8097 1.15618 10.8097H1.81657C1.90674 10.8097 1.97984 10.8828 1.97984 10.973V11.6334ZM1.97984 10.2352C1.97984 10.3254 1.90674 10.3985 1.81657 10.3985H1.15618C1.06601 10.3985 0.992914 10.3254 0.992914 10.2352V9.5748C0.992914 9.48463 1.06601 9.41154 1.15618 9.41154H1.81657C1.90674 9.41154 1.97984 9.48463 1.97984 9.5748V10.2352ZM1.97984 8.83707C1.97984 8.92721 1.90674 9.00034 1.81657 9.00034H1.15618C1.06601 9.00034 0.992914 8.92721 0.992914 8.83707V8.17665C0.992914 8.08648 1.06601 8.01339 1.15618 8.01339H1.81657C1.90674 8.01339 1.97984 8.08648 1.97984 8.17665V8.83707ZM1.97984 7.4389C1.97984 7.52906 1.90674 7.60217 1.81657 7.60217H1.15618C1.06601 7.60217 0.992914 7.52906 0.992914 7.4389V6.77851C0.992914 6.68834 1.06601 6.61525 1.15618 6.61525H1.81657C1.90674 6.61525 1.97984 6.68834 1.97984 6.77851V7.4389ZM1.97984 6.04076C1.97984 6.13094 1.90674 6.20403 1.81657 6.20403H1.15618C1.06601 6.20403 0.992914 6.13094 0.992914 6.04076V5.38037C0.992914 5.2902 1.06601 5.21711 1.15618 5.21711H1.81657C1.90674 5.21711 1.97984 5.2902 1.97984 5.38037V6.04076ZM1.97984 4.64261C1.97984 4.73278 1.90674 4.80587 1.81657 4.80587H1.15618C1.06601 4.80587 0.992914 4.73278 0.992914 4.64261V3.9822C0.992914 3.89203 1.06601 3.81894 1.15618 3.81894H1.81657C1.90674 3.81894 1.97984 3.89203 1.97984 3.9822V4.64261ZM3.42735 13.0315C3.42735 13.1217 3.35425 13.1948 3.26408 13.1948H2.60367C2.5135 13.1948 2.44041 13.1217 2.44041 13.0315V12.3711C2.44041 12.281 2.5135 12.2079 2.60367 12.2079H3.26408C3.35425 12.2079 3.42735 12.281 3.42735 12.3711V13.0315ZM3.42735 11.6334C3.42735 11.7235 3.35425 11.7966 3.26408 11.7966H2.60367C2.5135 11.7966 2.44041 11.7235 2.44041 11.6334V10.973C2.44041 10.8828 2.5135 10.8097 2.60367 10.8097H3.26408C3.35425 10.8097 3.42735 10.8828 3.42735 10.973V11.6334ZM3.42735 10.2352C3.42735 10.3254 3.35425 10.3985 3.26408 10.3985H2.60367C2.5135 10.3985 2.44041 10.3254 2.44041 10.2352V9.5748C2.44041 9.48463 2.5135 9.41154 2.60367 9.41154H3.26408C3.35425 9.41154 3.42735 9.48463 3.42735 9.5748V10.2352ZM3.42735 8.83707C3.42735 8.92721 3.35425 9.00034 3.26408 9.00034H2.60367C2.5135 9.00034 2.44041 8.92721 2.44041 8.83707V8.17665C2.44041 8.08648 2.5135 8.01339 2.60367 8.01339H3.26408C3.35425 8.01339 3.42735 8.08648 3.42735 8.17665V8.83707ZM3.42735 7.4389C3.42735 7.52906 3.35425 7.60217 3.26408 7.60217H2.60367C2.5135 7.60217 2.44041 7.52906 2.44041 7.4389V6.77851C2.44041 6.68834 2.5135 6.61525 2.60367 6.61525H3.26408C3.35425 6.61525 3.42735 6.68834 3.42735 6.77851V7.4389ZM3.42735 6.04076C3.42735 6.13094 3.35425 6.20403 3.26408 6.20403H2.60367C2.5135 6.20403 2.44041 6.13094 2.44041 6.04076V5.38037C2.44041 5.2902 2.5135 5.21711 2.60367 5.21711H3.26408C3.35425 5.21711 3.42735 5.2902 3.42735 5.38037V6.04076ZM3.42735 4.64261C3.42735 4.73278 3.35425 4.80587 3.26408 4.80587H2.60367C2.5135 4.80587 2.44041 4.73278 2.44041 4.64261V3.9822C2.44041 3.89203 2.5135 3.81894 2.60367 3.81894H3.26408C3.35425 3.81894 3.42735 3.89203 3.42735 3.9822V4.64261ZM4.87484 13.0315C4.87484 13.1217 4.80175 13.1948 4.71158 13.1948H4.05118C3.96101 13.1948 3.88792 13.1217 3.88792 13.0315V12.3711C3.88792 12.281 3.96101 12.2079 4.05118 12.2079H4.71158C4.80175 12.2079 4.87484 12.281 4.87484 12.3711V13.0315ZM4.87484 11.6334C4.87484 11.7235 4.80175 11.7966 4.71158 11.7966H4.05118C3.96101 11.7966 3.88792 11.7235 3.88792 11.6334V10.973C3.88792 10.8828 3.96101 10.8097 4.05118 10.8097H4.71158C4.80175 10.8097 4.87484 10.8828 4.87484 10.973V11.6334ZM4.87484 10.2352C4.87484 10.3254 4.80175 10.3985 4.71158 10.3985H4.05118C3.96101 10.3985 3.88792 10.3254 3.88792 10.2352V9.5748C3.88792 9.48463 3.96101 9.41154 4.05118 9.41154H4.71158C4.80175 9.41154 4.87484 9.48463 4.87484 9.5748V10.2352ZM4.87484 8.83707C4.87484 8.92721 4.80175 9.00034 4.71158 9.00034H4.05118C3.96101 9.00034 3.88792 8.92721 3.88792 8.83707V8.17665C3.88792 8.08648 3.96101 8.01339 4.05118 8.01339H4.71158C4.80175 8.01339 4.87484 8.08648 4.87484 8.17665V8.83707ZM4.87484 7.4389C4.87484 7.52906 4.80175 7.60217 4.71158 7.60217H4.05118C3.96101 7.60217 3.88792 7.52906 3.88792 7.4389V6.77851C3.88792 6.68834 3.96101 6.61525 4.05118 6.61525H4.71158C4.80175 6.61525 4.87484 6.68834 4.87484 6.77851V7.4389ZM4.87484 6.04076C4.87484 6.13094 4.80175 6.20403 4.71158 6.20403H4.05118C3.96101 6.20403 3.88792 6.13094 3.88792 6.04076V5.38037C3.88792 5.2902 3.96101 5.21711 4.05118 5.21711H4.71158C4.80175 5.21711 4.87484 5.2902 4.87484 5.38037V6.04076ZM4.87484 4.64261C4.87484 4.73278 4.80175 4.80587 4.71158 4.80587H4.05118C3.96101 4.80587 3.88792 4.73278 3.88792 4.64261V3.9822C3.88792 3.89203 3.96101 3.81894 4.05118 3.81894H4.71158C4.80175 3.81894 4.87484 3.89203 4.87484 3.9822V4.64261ZM6.32233 13.0315C6.32233 13.1217 6.24922 13.1948 6.15907 13.1948H5.49868C5.40851 13.1948 5.33541 13.1217 5.33541 13.0315V12.3711C5.33541 12.281 5.40851 12.2079 5.49868 12.2079H6.15907C6.24922 12.2079 6.32233 12.281 6.32233 12.3711V13.0315ZM6.32233 11.6334C6.32233 11.7235 6.24922 11.7966 6.15907 11.7966H5.49868C5.40851 11.7966 5.33541 11.7235 5.33541 11.6334V10.973C5.33541 10.8828 5.40851 10.8097 5.49868 10.8097H6.15907C6.24922 10.8097 6.32233 10.8828 6.32233 10.973V11.6334ZM6.32233 10.2352C6.32233 10.3254 6.24922 10.3985 6.15907 10.3985H5.49868C5.40851 10.3985 5.33541 10.3254 5.33541 10.2352V9.5748C5.33541 9.48463 5.40851 9.41154 5.49868 9.41154H6.15907C6.24922 9.41154 6.32233 9.48463 6.32233 9.5748V10.2352ZM6.32233 8.83707C6.32233 8.92721 6.24922 9.00034 6.15907 9.00034H5.49868C5.40851 9.00034 5.33541 8.92721 5.33541 8.83707V8.17665C5.33541 8.08648 5.40851 8.01339 5.49868 8.01339H6.15907C6.24922 8.01339 6.32233 8.08648 6.32233 8.17665V8.83707ZM6.32233 7.4389C6.32233 7.52906 6.24922 7.60217 6.15907 7.60217H5.49868C5.40851 7.60217 5.33541 7.52906 5.33541 7.4389V6.77851C5.33541 6.68834 5.40851 6.61525 5.49868 6.61525H6.15907C6.24922 6.61525 6.32233 6.68834 6.32233 6.77851V7.4389ZM6.32233 6.04076C6.32233 6.13094 6.24922 6.20403 6.15907 6.20403H5.49868C5.40851 6.20403 5.33541 6.13094 5.33541 6.04076V5.38037C5.33541 5.2902 5.40851 5.21711 5.49868 5.21711H6.15907C6.24922 5.21711 6.32233 5.2902 6.32233 5.38037V6.04076ZM6.32233 4.64261C6.32233 4.73278 6.24922 4.80587 6.15907 4.80587H5.49868C5.40851 4.80587 5.33541 4.73278 5.33541 4.64261V3.9822C5.33541 3.89203 5.40851 3.81894 5.49868 3.81894H6.15907C6.24922 3.81894 6.32233 3.89203 6.32233 3.9822V4.64261ZM8.65811 13.8705C8.65811 13.9607 8.58501 14.0338 8.49484 14.0338H7.5054C7.41523 14.0338 7.34214 13.9607 7.34214 13.8705V12.3875C7.34214 12.2973 7.41523 12.2242 7.5054 12.2242H8.49484C8.58501 12.2242 8.65811 12.2973 8.65811 12.3875V13.8705ZM9.21734 11.6334C9.21734 11.7235 9.14424 11.7966 9.05407 11.7966H6.94617C6.856 11.7966 6.78291 11.7235 6.78291 11.6334V10.973C6.78291 10.8828 6.856 10.8097 6.94617 10.8097H9.05406C9.14423 10.8097 9.21732 10.8828 9.21732 10.973V11.6334H9.21734ZM9.21734 10.2352C9.21734 10.3254 9.14424 10.3985 9.05407 10.3985H6.94617C6.856 10.3985 6.78291 10.3254 6.78291 10.2352V9.5748C6.78291 9.48463 6.856 9.41154 6.94617 9.41154H9.05406C9.14423 9.41154 9.21732 9.48463 9.21732 9.5748V10.2352H9.21734ZM9.21734 8.83707C9.21734 8.92721 9.14424 9.00034 9.05407 9.00034H6.94617C6.856 9.00034 6.78291 8.92721 6.78291 8.83707V8.17665C6.78291 8.08648 6.856 8.01339 6.94617 8.01339H9.05406C9.14423 8.01339 9.21732 8.08648 9.21732 8.17665V8.83707H9.21734ZM9.21734 7.4389C9.21734 7.52906 9.14424 7.60217 9.05407 7.60217H6.94617C6.856 7.60217 6.78291 7.52906 6.78291 7.4389V6.77851C6.78291 6.68834 6.856 6.61525 6.94617 6.61525H9.05406C9.14423 6.61525 9.21732 6.68834 9.21732 6.77851V7.4389H9.21734ZM9.21734 6.04076C9.21734 6.13094 9.14424 6.20403 9.05407 6.20403H6.94617C6.856 6.20403 6.78291 6.13094 6.78291 6.04076V5.38037C6.78291 5.2902 6.856 5.21711 6.94617 5.21711H9.05406C9.14423 5.21711 9.21732 5.2902 9.21732 5.38037V6.04076H9.21734ZM9.21734 4.64261C9.21734 4.73278 9.14424 4.80587 9.05407 4.80587H6.94617C6.856 4.80587 6.78291 4.73278 6.78291 4.64261V3.9822C6.78291 3.89203 6.856 3.81894 6.94617 3.81894H9.05406C9.14423 3.81894 9.21732 3.89203 9.21732 3.9822V4.64261H9.21734ZM10.6648 13.0315C10.6648 13.1217 10.5917 13.1948 10.5016 13.1948H9.84117C9.75102 13.1948 9.67791 13.1217 9.67791 13.0315V12.3711C9.67791 12.281 9.75102 12.2079 9.84117 12.2079H10.5016C10.5917 12.2079 10.6648 12.281 10.6648 12.3711V13.0315ZM10.6648 11.6334C10.6648 11.7235 10.5917 11.7966 10.5016 11.7966H9.84117C9.75102 11.7966 9.67791 11.7235 9.67791 11.6334V10.973C9.67791 10.8828 9.75102 10.8097 9.84117 10.8097H10.5016C10.5917 10.8097 10.6648 10.8828 10.6648 10.973V11.6334ZM10.6648 10.2352C10.6648 10.3254 10.5917 10.3985 10.5016 10.3985H9.84117C9.75102 10.3985 9.67791 10.3254 9.67791 10.2352V9.5748C9.67791 9.48463 9.75102 9.41154 9.84117 9.41154H10.5016C10.5917 9.41154 10.6648 9.48463 10.6648 9.5748V10.2352ZM10.6648 8.83707C10.6648 8.92721 10.5917 9.00034 10.5016 9.00034H9.84117C9.75102 9.00034 9.67791 8.92721 9.67791 8.83707V8.17665C9.67791 8.08648 9.75102 8.01339 9.84117 8.01339H10.5016C10.5917 8.01339 10.6648 8.08648 10.6648 8.17665V8.83707ZM10.6648 7.4389C10.6648 7.52906 10.5917 7.60217 10.5016 7.60217H9.84117C9.75102 7.60217 9.67791 7.52906 9.67791 7.4389V6.77851C9.67791 6.68834 9.75102 6.61525 9.84117 6.61525H10.5016C10.5917 6.61525 10.6648 6.68834 10.6648 6.77851V7.4389ZM10.6648 6.04076C10.6648 6.13094 10.5917 6.20403 10.5016 6.20403H9.84117C9.75102 6.20403 9.67791 6.13094 9.67791 6.04076V5.38037C9.67791 5.2902 9.75102 5.21711 9.84117 5.21711H10.5016C10.5917 5.21711 10.6648 5.2902 10.6648 5.38037V6.04076ZM10.6648 4.64261C10.6648 4.73278 10.5917 4.80587 10.5016 4.80587H9.84117C9.75102 4.80587 9.67791 4.73278 9.67791 4.64261V3.9822C9.67791 3.89203 9.75102 3.81894 9.84117 3.81894H10.5016C10.5917 3.81894 10.6648 3.89203 10.6648 3.9822V4.64261ZM12.1123 13.0315C12.1123 13.1217 12.0392 13.1948 11.9491 13.1948H11.2887C11.1985 13.1948 11.1254 13.1217 11.1254 13.0315V12.3711C11.1254 12.281 11.1985 12.2079 11.2887 12.2079H11.9491C12.0392 12.2079 12.1123 12.281 12.1123 12.3711V13.0315ZM12.1123 11.6334C12.1123 11.7235 12.0392 11.7966 11.9491 11.7966H11.2887C11.1985 11.7966 11.1254 11.7235 11.1254 11.6334V10.973C11.1254 10.8828 11.1985 10.8097 11.2887 10.8097H11.9491C12.0392 10.8097 12.1123 10.8828 12.1123 10.973V11.6334ZM12.1123 10.2352C12.1123 10.3254 12.0392 10.3985 11.9491 10.3985H11.2887C11.1985 10.3985 11.1254 10.3254 11.1254 10.2352V9.5748C11.1254 9.48463 11.1985 9.41154 11.2887 9.41154H11.9491C12.0392 9.41154 12.1123 9.48463 12.1123 9.5748V10.2352ZM12.1123 8.83707C12.1123 8.92721 12.0392 9.00034 11.9491 9.00034H11.2887C11.1985 9.00034 11.1254 8.92721 11.1254 8.83707V8.17665C11.1254 8.08648 11.1985 8.01339 11.2887 8.01339H11.9491C12.0392 8.01339 12.1123 8.08648 12.1123 8.17665V8.83707ZM12.1123 7.4389C12.1123 7.52906 12.0392 7.60217 11.9491 7.60217H11.2887C11.1985 7.60217 11.1254 7.52906 11.1254 7.4389V6.77851C11.1254 6.68834 11.1985 6.61525 11.2887 6.61525H11.9491C12.0392 6.61525 12.1123 6.68834 12.1123 6.77851V7.4389ZM12.1123 6.04076C12.1123 6.13094 12.0392 6.20403 11.9491 6.20403H11.2887C11.1985 6.20403 11.1254 6.13094 11.1254 6.04076V5.38037C11.1254 5.2902 11.1985 5.21711 11.2887 5.21711H11.9491C12.0392 5.21711 12.1123 5.2902 12.1123 5.38037V6.04076ZM12.1123 4.64261C12.1123 4.73278 12.0392 4.80587 11.9491 4.80587H11.2887C11.1985 4.80587 11.1254 4.73278 11.1254 4.64261V3.9822C11.1254 3.89203 11.1985 3.81894 11.2887 3.81894H11.9491C12.0392 3.81894 12.1123 3.89203 12.1123 3.9822V4.64261ZM13.5598 13.0315C13.5598 13.1217 13.4867 13.1948 13.3966 13.1948H12.7362C12.646 13.1948 12.5729 13.1217 12.5729 13.0315V12.3711C12.5729 12.281 12.646 12.2079 12.7362 12.2079H13.3966C13.4867 12.2079 13.5598 12.281 13.5598 12.3711V13.0315ZM13.5598 11.6334C13.5598 11.7235 13.4867 11.7966 13.3966 11.7966H12.7362C12.646 11.7966 12.5729 11.7235 12.5729 11.6334V10.973C12.5729 10.8828 12.646 10.8097 12.7362 10.8097H13.3966C13.4867 10.8097 13.5598 10.8828 13.5598 10.973V11.6334ZM13.5598 10.2352C13.5598 10.3254 13.4867 10.3985 13.3966 10.3985H12.7362C12.646 10.3985 12.5729 10.3254 12.5729 10.2352V9.5748C12.5729 9.48463 12.646 9.41154 12.7362 9.41154H13.3966C13.4867 9.41154 13.5598 9.48463 13.5598 9.5748V10.2352ZM13.5598 8.83707C13.5598 8.92721 13.4867 9.00034 13.3966 9.00034H12.7362C12.646 9.00034 12.5729 8.92721 12.5729 8.83707V8.17665C12.5729 8.08648 12.646 8.01339 12.7362 8.01339H13.3966C13.4867 8.01339 13.5598 8.08648 13.5598 8.17665V8.83707ZM13.5598 7.4389C13.5598 7.52906 13.4867 7.60217 13.3966 7.60217H12.7362C12.646 7.60217 12.5729 7.52906 12.5729 7.4389V6.77851C12.5729 6.68834 12.646 6.61525 12.7362 6.61525H13.3966C13.4867 6.61525 13.5598 6.68834 13.5598 6.77851V7.4389ZM13.5598 6.04076C13.5598 6.13094 13.4867 6.20403 13.3966 6.20403H12.7362C12.646 6.20403 12.5729 6.13094 12.5729 6.04076V5.38037C12.5729 5.2902 12.646 5.21711 12.7362 5.21711H13.3966C13.4867 5.21711 13.5598 5.2902 13.5598 5.38037V6.04076ZM13.5598 4.64261C13.5598 4.73278 13.4867 4.80587 13.3966 4.80587H12.7362C12.646 4.80587 12.5729 4.73278 12.5729 4.64261V3.9822C12.5729 3.89203 12.646 3.81894 12.7362 3.81894H13.3966C13.4867 3.81894 13.5598 3.89203 13.5598 3.9822V4.64261ZM15.0073 13.0315C15.0073 13.1217 14.9342 13.1948 14.8441 13.1948H14.1837C14.0935 13.1948 14.0204 13.1217 14.0204 13.0315V12.3711C14.0204 12.281 14.0935 12.2079 14.1837 12.2079H14.8441C14.9342 12.2079 15.0073 12.281 15.0073 12.3711V13.0315ZM15.0073 11.6334C15.0073 11.7235 14.9342 11.7966 14.8441 11.7966H14.1837C14.0935 11.7966 14.0204 11.7235 14.0204 11.6334V10.973C14.0204 10.8828 14.0935 10.8097 14.1837 10.8097H14.8441C14.9342 10.8097 15.0073 10.8828 15.0073 10.973V11.6334ZM15.0073 10.2352C15.0073 10.3254 14.9342 10.3985 14.8441 10.3985H14.1837C14.0935 10.3985 14.0204 10.3254 14.0204 10.2352V9.5748C14.0204 9.48463 14.0935 9.41154 14.1837 9.41154H14.8441C14.9342 9.41154 15.0073 9.48463 15.0073 9.5748V10.2352ZM15.0073 8.83707C15.0073 8.92721 14.9342 9.00034 14.8441 9.00034H14.1837C14.0935 9.00034 14.0204 8.92721 14.0204 8.83707V8.17665C14.0204 8.08648 14.0935 8.01339 14.1837 8.01339H14.8441C14.9342 8.01339 15.0073 8.08648 15.0073 8.17665V8.83707ZM15.0073 7.4389C15.0073 7.52906 14.9342 7.60217 14.8441 7.60217H14.1837C14.0935 7.60217 14.0204 7.52906 14.0204 7.4389V6.77851C14.0204 6.68834 14.0935 6.61525 14.1837 6.61525H14.8441C14.9342 6.61525 15.0073 6.68834 15.0073 6.77851V7.4389ZM15.0073 6.04076C15.0073 6.13094 14.9342 6.20403 14.8441 6.20403H14.1837C14.0935 6.20403 14.0204 6.13094 14.0204 6.04076V5.38037C14.0204 5.2902 14.0935 5.21711 14.1837 5.21711H14.8441C14.9342 5.21711 15.0073 5.2902 15.0073 5.38037V6.04076ZM15.0073 4.64261C15.0073 4.73278 14.9342 4.80587 14.8441 4.80587H14.1837C14.0935 4.80587 14.0204 4.73278 14.0204 4.64261V3.9822C14.0204 3.89203 14.0935 3.81894 14.1837 3.81894H14.8441C14.9342 3.81894 15.0073 3.89203 15.0073 3.9822V4.64261Z" fill="black"/>
<path d="M0.312539 2.93328H15.6549C15.7249 2.93328 15.7624 2.85099 15.7165 2.79814L15.0878 2.07367C15.0574 2.02885 15.0068 2.00201 14.9526 2.00201H13.8876C13.7974 2.00201 13.7243 1.92892 13.7243 1.83875V1.22131C13.7243 1.13114 13.6512 1.05804 13.5611 1.05804H13.0322C12.9421 1.05804 12.869 1.13114 12.869 1.22131V1.83875C12.869 1.92892 12.7959 2.00201 12.7057 2.00201H3.29453C3.20436 2.00201 3.13126 1.92892 3.13126 1.83875V1.22131C3.13126 1.13114 3.05817 1.05804 2.968 1.05804H2.43918C2.34901 1.05804 2.27592 1.13114 2.27592 1.22131V1.83875C2.27592 1.92892 2.20282 2.00201 2.11265 2.00201H1.01479C0.960653 2.00201 0.910041 2.02887 0.879657 2.07367L0.25089 2.79814C0.205012 2.85099 0.242547 2.93328 0.312539 2.93328Z" fill="black"/>
</svg>
