<svg width="24" height="24" viewBox="0 0 24 24" fill="none" xmlns="http://www.w3.org/2000/svg">
<path d="M6 3C5.20435 3 4.44129 3.31607 3.87868 3.87868C3.31607 4.44129 3 5.20435 3 6V8.143C3 8.477 3 8.644 3.077 8.766C3.11691 8.82944 3.17056 8.88309 3.234 8.923C3.356 9 3.523 9 3.857 9H9M6 3C6.79565 3 7.55871 3.31607 8.12132 3.87868C8.68393 4.44129 9 5.20435 9 6V9M6 3H17C18.886 3 19.828 3 20.414 3.586C21 4.172 21 5.114 21 7V21L18 20L15 21L12 20L9 21V9" stroke="black"/>
<path d="M17 7H13M16 11H17M17 15H14" stroke="black" stroke-linecap="round"/>
</svg>
