<svg width="40" height="10" viewBox="0 0 40 10" fill="none" xmlns="http://www.w3.org/2000/svg">
<g clip-path="url(#clip0_867_81)">
<mask id="mask0_867_81" style="mask-type:luminance" maskUnits="userSpaceOnUse" x="0" y="0" width="40" height="10">
<path d="M0 0.00195312H40V9.3604H0V0.00195312Z" fill="white"/>
</mask>
<g mask="url(#mask0_867_81)">
<path d="M14.2831 3.42969C15.1579 3.42969 15.7456 3.88729 15.9385 4.6724H14.9829C14.8798 4.37631 14.6465 4.18338 14.2786 4.18338C13.7851 4.18338 13.4531 4.55575 13.4531 5.24215C13.4531 5.92857 13.7806 6.29194 14.2786 6.29194C14.6465 6.29194 14.8753 6.12595 14.9829 5.81192H15.9385C15.7501 6.56113 15.1579 7.05463 14.2831 7.05463C13.2692 7.05463 12.5469 6.34578 12.5469 5.24215C12.5469 4.13851 13.2692 3.42969 14.2831 3.42969Z" fill="#1D1652"/>
<path d="M17.9577 3.42969C18.523 3.42969 18.9088 3.69437 19.1152 3.98598V3.48799H20.0079V6.99631H19.1152V6.48486C18.9043 6.78993 18.505 7.05463 17.9487 7.05463C17.0604 7.05463 16.3516 6.32785 16.3516 5.22869C16.3516 4.12954 17.0649 3.42969 17.9577 3.42969ZM18.1865 4.21029C17.7109 4.21029 17.2623 4.56472 17.2623 5.22869C17.2623 5.89267 17.7109 6.274 18.1865 6.274C18.6755 6.274 19.1196 5.90612 19.1196 5.24215C19.1196 4.57817 18.6755 4.21029 18.1865 4.21029Z" fill="#1D1652"/>
<path d="M22.2218 7.05405C21.3425 7.05405 20.7279 6.54261 20.6875 5.88761H21.5803C21.6117 6.15231 21.8584 6.35868 22.2129 6.35868C22.5628 6.35868 22.7512 6.20167 22.7512 5.99978C22.7512 5.37168 20.7683 5.77098 20.7683 4.48339C20.7683 3.90019 21.2887 3.43359 22.1545 3.43359C23.0024 3.43359 23.5184 3.8957 23.5677 4.59107H22.7198C22.6929 4.3174 22.4775 4.13347 22.1321 4.13347C21.8046 4.13347 21.6296 4.26807 21.6296 4.46993C21.6296 5.11148 23.5767 4.71221 23.5991 5.99529C23.6036 6.59645 23.0742 7.05405 22.2218 7.05405Z" fill="#1D1652"/>
<path d="M25.8456 3.42969C26.7203 3.42969 27.3082 3.88729 27.5009 4.6724H26.5455C26.4422 4.37631 26.209 4.18338 25.841 4.18338C25.3477 4.18338 25.0156 4.55575 25.0156 5.24215C25.0156 5.92857 25.3431 6.29194 25.841 6.29194C26.209 6.29194 26.4379 6.12595 26.5455 5.81192H27.5009C27.3125 6.56113 26.7203 7.05463 25.8456 7.05463C24.8316 7.05463 24.1094 6.34578 24.1094 5.24215C24.1094 4.13851 24.8316 3.42969 25.8456 3.42969Z" fill="#1D1652"/>
<path d="M29.5279 3.42969C30.0933 3.42969 30.4792 3.69437 30.6855 3.98598V3.48799H31.5784V6.99631H30.6855V6.48486C30.4746 6.78993 30.0753 7.05463 29.519 7.05463C28.6307 7.05463 27.9219 6.32785 27.9219 5.22869C27.9219 4.12954 28.6307 3.42969 29.5279 3.42969ZM29.7524 4.21029C29.2768 4.21029 28.8281 4.56472 28.8281 5.22869C28.8281 5.89267 29.2768 6.274 29.7524 6.274C30.2414 6.274 30.6855 5.90612 30.6855 5.24215C30.6855 4.57817 30.2414 4.21029 29.7524 4.21029Z" fill="#1D1652"/>
<path d="M33.8248 3.43017C34.2869 3.43017 34.731 3.64551 34.9734 3.97303V2.30859H35.875V6.99679H34.9734V6.47637C34.7625 6.7994 34.3722 7.05511 33.8204 7.05511C32.9276 7.05511 32.2188 6.32832 32.2188 5.2292C32.2188 4.13005 32.9276 3.43017 33.8248 3.43017ZM34.0491 4.2108C33.5737 4.2108 33.1249 4.56522 33.1249 5.2292C33.1249 5.89315 33.5737 6.27451 34.0491 6.27451C34.5383 6.27451 34.9824 5.90663 34.9824 5.24265C34.9824 4.57868 34.5383 4.2108 34.0491 4.2108Z" fill="#1D1652"/>
<path d="M38.271 7.05463C37.2525 7.05463 36.5078 6.34578 36.5078 5.24215C36.5078 4.13403 37.2302 3.42969 38.271 3.42969C39.285 3.42969 40.0026 4.12057 40.0026 5.16588C40.0026 5.27805 39.9982 5.39468 39.9757 5.50685H37.4096C37.4545 6.02726 37.8089 6.31888 38.253 6.31888C38.6344 6.31888 38.8407 6.13044 38.9575 5.89267H39.9129C39.7202 6.54319 39.1369 7.05463 38.271 7.05463ZM37.4142 4.91466H39.0785C39.0651 4.45257 38.6971 4.16096 38.2441 4.16096C37.8179 4.16096 37.486 4.43012 37.4142 4.91466Z" fill="#1D1652"/>
<path fill-rule="evenodd" clip-rule="evenodd" d="M8.23687 0.00195313H1.12607C0.506953 0.00195313 0 0.459558 0 1.01586V8.351C0 8.90729 0.506953 9.36489 1.12607 9.36489H8.23687C8.856 9.36489 9.36293 8.90729 9.36293 8.351V1.01586C9.35845 0.459558 8.856 0.00195313 8.23687 0.00195313ZM4.10048 1.67086C4.10048 1.52281 4.22162 1.40617 4.36519 1.40617H4.98429C5.13234 1.40617 5.24899 1.5273 5.24899 1.67086V2.15539C5.24899 2.30343 5.12785 2.42008 4.98429 2.42008H4.36967C4.22162 2.42008 4.10497 2.29895 4.10497 2.15539V1.67086H4.10048ZM3.02378 7.15315C3.02378 7.3012 2.90264 7.41783 2.75908 7.41783H2.13549C1.98744 7.41783 1.8708 7.29672 1.8708 7.15315V6.66413C1.8708 6.51609 1.99192 6.39943 2.13549 6.39943H2.75908C2.90713 6.39943 3.02378 6.52057 3.02378 6.66413V7.15315ZM3.02378 5.47975C3.02378 5.6278 2.90264 5.74445 2.75908 5.74445H2.13549C1.98744 5.74445 1.8708 5.62331 1.8708 5.47975V4.99073C1.8708 4.84268 1.99192 4.72605 2.13549 4.72605H2.75908C2.90713 4.72605 3.02378 4.84716 3.02378 4.99073V5.47975ZM3.8672 4.05759H3.2481C3.10005 4.05759 2.98339 3.93645 2.98339 3.79289V3.30389C2.98339 3.15584 3.10453 3.03919 3.2481 3.03919H3.8672C4.01525 3.03919 4.1319 3.16033 4.1319 3.30389V3.79289C4.13639 3.93645 4.01525 4.05759 3.8672 4.05759ZM5.25796 5.47975C5.25796 5.6278 5.13682 5.74445 4.99326 5.74445H4.36967C4.22162 5.74445 4.10497 5.62331 4.10497 5.47975V4.99073C4.10497 4.84268 4.22611 4.72605 4.36967 4.72605H4.98878C5.13682 4.72605 5.25348 4.84716 5.25348 4.99073V5.47975H5.25796ZM6.14177 4.05759H5.52267C5.37462 4.05759 5.25796 3.93645 5.25796 3.79289V3.30389C5.25796 3.15584 5.3791 3.03919 5.52267 3.03919H6.14177C6.28982 3.03919 6.40647 3.16033 6.40647 3.30389V3.79289C6.41096 3.93645 6.28982 4.05759 6.14177 4.05759ZM7.49215 7.13967C7.49215 7.28772 7.37103 7.40438 7.22747 7.40438H6.60834C6.46029 7.40438 6.34366 7.28324 6.34366 7.13967V6.65068C6.34366 6.50263 6.46478 6.38598 6.60834 6.38598H7.22747C7.37551 6.38598 7.49215 6.50712 7.49215 6.65068V7.13967ZM7.49215 5.52462C7.49215 5.67267 7.37103 5.7893 7.22747 5.7893H6.60834C6.46029 5.7893 6.34366 5.66818 6.34366 5.52462V5.0356C6.34366 4.88755 6.46478 4.7709 6.60834 4.7709H7.22747C7.37551 4.7709 7.49215 4.89204 7.49215 5.0356V5.52462Z" fill="#1D1652"/>
</g>
</g>
<defs>
<clipPath id="clip0_867_81">
<rect width="40" height="9.45455" fill="white"/>
</clipPath>
</defs>
</svg>
