<svg width="40" height="8" viewBox="0 0 40 8" fill="none" xmlns="http://www.w3.org/2000/svg">
<g clip-path="url(#clip0_884_206)">
<path d="M37.7578 6.3733C37.7578 5.7799 38.2413 5.31836 38.8128 5.31836C39.4062 5.31836 39.8677 5.80188 39.8677 6.3733C39.8677 6.94473 39.3842 7.42825 38.8128 7.42825C38.2413 7.42825 37.7578 6.96671 37.7578 6.3733Z" fill="#86BC25"/>
<path d="M6.06593 3.53797C6.06593 4.76874 5.75824 5.69181 5.0989 6.35115C4.43956 7.0105 3.51648 7.34017 2.32967 7.34017H0V0.0214844H2.46154C3.62637 0.0214844 4.50549 0.307199 5.12088 0.922583C5.75824 1.51599 6.06593 2.39511 6.06593 3.53797ZM4.04396 3.6039C4.04396 2.92258 3.91209 2.43907 3.64835 2.1094C3.40659 1.8017 2.98901 1.62588 2.46154 1.62588H1.93407V5.71379H2.37363C2.96703 5.71379 3.38462 5.53797 3.67033 5.18632C3.91209 4.83467 4.04396 4.3072 4.04396 3.6039Z" fill="black"/>
<path d="M14.2851 0H12.4609V7.34066H14.2851V0Z" fill="black"/>
<path d="M20.3094 4.59248C20.3094 5.4716 20.0896 6.1749 19.6061 6.6804C19.1226 7.18589 18.4633 7.42765 17.6281 7.42765C16.8149 7.42765 16.1775 7.18589 15.694 6.65842C15.2105 6.13094 14.9688 5.44963 14.9688 4.59248C14.9688 3.71336 15.1885 3.01007 15.672 2.52655C16.1556 2.02106 16.8149 1.7793 17.6501 1.7793C18.1775 1.7793 18.6391 1.88919 19.0347 2.10897C19.4523 2.32875 19.738 2.65842 19.9578 3.076C20.2215 3.53754 20.3094 4.02105 20.3094 4.59248ZM16.8589 4.59248C16.8589 5.076 16.9248 5.40567 17.0347 5.64743C17.1446 5.88919 17.3424 5.99908 17.6501 5.99908C17.9578 5.99908 18.1336 5.88919 18.2655 5.64743C18.3753 5.40567 18.4413 5.03204 18.4413 4.59248C18.4413 4.10897 18.3753 3.7793 18.2655 3.53754C18.1556 3.31776 17.9578 3.18589 17.6501 3.18589C17.3863 3.18589 17.1666 3.29578 17.0347 3.53754C16.9248 3.7793 16.8589 4.10897 16.8589 4.59248Z" fill="black"/>
<path d="M22.8789 1.86719H21.0547V7.31774H22.8789V1.86719Z" fill="black"/>
<path d="M22.8789 0H21.0547V1.23077H22.8789V0Z" fill="black"/>
<path d="M26.5891 5.93353C26.8309 5.93353 27.1386 5.8676 27.4682 5.75771V7.14232C27.2265 7.25221 26.9847 7.31814 26.7649 7.3621C26.5452 7.40606 26.2814 7.42803 25.9737 7.42803C25.3583 7.42803 24.9188 7.27419 24.6331 6.94452C24.3693 6.63683 24.2155 6.15331 24.2155 5.51595V3.27419H23.5781V1.8676H24.2155V0.504958L26.0616 0.197266V1.91155H27.2485V3.29617H26.0616V5.40606C26.1056 5.77968 26.2594 5.93353 26.5891 5.93353Z" fill="black"/>
<path d="M30.8547 5.93353C31.0965 5.93353 31.4042 5.8676 31.7339 5.75771V7.14232C31.4921 7.25221 31.2503 7.31814 31.0306 7.3621C30.8108 7.40606 30.547 7.42803 30.2394 7.42803C29.624 7.42803 29.1844 7.27419 28.8987 6.94452C28.635 6.63683 28.4811 6.15331 28.4811 5.51595V3.27419H27.8438V1.8676H28.4811V0.48298L30.3273 0.197266V1.91155H31.5141V3.29617H30.3273V5.40606C30.3492 5.77968 30.5251 5.93353 30.8547 5.93353Z" fill="black"/>
<path d="M36.6554 2.41666C36.2158 1.9771 35.6004 1.7793 34.8092 1.7793C33.9741 1.7793 33.3147 2.02106 32.8532 2.52655C32.3917 3.03204 32.1719 3.73534 32.1719 4.65842C32.1719 5.53754 32.4136 6.24084 32.8972 6.72435C33.4026 7.20787 34.084 7.44963 34.9631 7.44963C35.4026 7.44963 35.7543 7.42765 36.062 7.36171C36.3477 7.29578 36.6774 7.20787 36.9411 7.05402L36.6774 5.82325C36.4796 5.91116 36.2598 5.9771 36.084 6.02105C35.8202 6.08699 35.5125 6.10897 35.2048 6.10897C34.8532 6.10897 34.5675 6.02106 34.3697 5.86721C34.1719 5.69138 34.062 5.44963 34.062 5.14193H37.3367V4.28479C37.3147 3.4716 37.073 2.85622 36.6554 2.41666ZM34.062 3.93314C34.084 3.64743 34.1719 3.40567 34.3037 3.2738C34.4356 3.14193 34.6114 3.076 34.8532 3.076C35.073 3.076 35.2928 3.14193 35.4246 3.29578C35.5565 3.44963 35.6224 3.64743 35.6444 3.93314H34.062Z" fill="black"/>
<path d="M11.1007 2.41666C10.6392 1.9771 10.0458 1.7793 9.25455 1.7793C8.41939 1.7793 7.76004 2.02106 7.29851 2.52655C6.83697 3.03204 6.61719 3.73534 6.61719 4.65842C6.61719 5.53754 6.85895 6.24084 7.34246 6.72435C7.84796 7.20787 8.52928 7.44963 9.4084 7.44963C9.84796 7.44963 10.1996 7.42765 10.5073 7.36171C10.793 7.29578 11.1227 7.20787 11.3864 7.05402L11.1227 5.80127C10.9249 5.88919 10.7051 5.95512 10.5293 5.99908C10.2655 6.06501 9.95785 6.08699 9.65016 6.08699C9.29851 6.08699 9.01279 5.99908 8.81499 5.84523C8.61719 5.66941 8.5073 5.42765 8.5073 5.11996H11.782V4.28479C11.76 3.4716 11.5183 2.85622 11.1007 2.41666ZM8.48532 3.93314C8.5073 3.64743 8.59521 3.40567 8.72708 3.2738C8.85895 3.14193 9.03477 3.076 9.27653 3.076C9.51829 3.076 9.71609 3.14193 9.84796 3.29578C9.97982 3.44963 10.0458 3.64743 10.0677 3.93314H8.48532Z" fill="black"/>
</g>
<defs>
<clipPath id="clip0_884_206">
<rect width="40" height="7.47253" fill="white"/>
</clipPath>
</defs>
</svg>
