<svg width="40" height="11" viewBox="0 0 40 11" fill="none" xmlns="http://www.w3.org/2000/svg">
<g clip-path="url(#clip0_867_69)">
<path d="M4.26322 1.58008V4.63727H1.37243V1.58008H0V8.87789H1.37243V5.91997H4.26322V8.87789H5.63565V1.58008H4.26322Z" fill="#33475B"/>
<path d="M10.2749 6.49751C10.2749 7.10135 9.76113 7.59086 9.12736 7.59086C8.49359 7.59086 7.97982 7.10135 7.97982 6.49751V3.39844H6.66406V6.49751C6.66406 7.79245 7.76585 8.84221 9.12498 8.84221C10.4841 8.84221 11.5859 7.79245 11.5859 6.49751V3.39844H10.2749V6.49751Z" fill="#33475B"/>
<path d="M20.0214 3.71833C20.0214 3.08311 20.4624 2.88173 20.9457 2.88173C21.3351 2.88173 21.8495 3.16405 22.186 3.50659L23.0477 2.53918C22.6175 1.9849 21.7449 1.60156 21.0306 1.60156C19.6034 1.60156 18.571 2.39802 18.571 3.71833C18.571 6.16793 21.7136 5.3909 21.7136 6.76171C21.7136 7.18455 21.2827 7.55817 20.7893 7.55817C20.0112 7.55817 19.759 7.19556 19.4015 6.81222L18.4453 7.75955C19.057 8.47507 19.8114 8.83834 20.7153 8.83834C22.0711 8.83834 23.1619 8.03216 23.1619 6.77207C23.1619 4.05246 20.0193 4.89748 20.0193 3.71833" fill="#33475B"/>
<path d="M39.4653 7.68154C38.6878 7.68154 38.4669 7.36102 38.4669 6.87019V4.69773H39.6753V3.59694H38.4669V2.14453L37.1328 2.715V7.14021C37.1328 8.27209 37.9524 8.84256 39.0765 8.84256C39.2528 8.84562 39.429 8.83217 39.6026 8.80241L39.9281 7.66082C39.7813 7.67054 39.6128 7.68025 39.4653 7.68025" fill="#33475B"/>
<path d="M15.2858 3.43495C14.6341 3.43495 14.1794 3.61496 13.7397 4.02614V1.64453H12.4219V6.05873C12.4219 7.71122 13.6758 8.8431 15.0846 8.8431C16.6478 8.8431 18.0227 7.69115 18.0227 6.13967C18.0227 4.60762 16.7572 3.43559 15.2858 3.43559M15.2777 7.57977C14.4519 7.57977 13.7825 6.94198 13.7825 6.15521C13.7825 5.36845 14.4519 4.73065 15.2777 4.73065C16.1034 4.73065 16.7728 5.36845 16.7728 6.15521C16.7728 6.94198 16.1034 7.57977 15.2777 7.57977Z" fill="#33475B"/>
<path d="M29.593 6.07452C29.593 4.52046 28.2208 3.37109 26.655 3.37109C25.2461 3.37109 23.9922 4.50297 23.9922 6.15546V10.5723H25.31V8.18741C25.749 8.59794 26.2044 8.7786 26.8554 8.7786C28.3268 8.7786 29.5923 7.60722 29.5923 6.07452M28.3452 6.05898C28.3452 6.84575 27.6758 7.48354 26.85 7.48354C26.0242 7.48354 25.3548 6.84575 25.3548 6.05898C25.3548 5.27222 26.0242 4.63442 26.85 4.63442C27.6758 4.63442 28.3452 5.27222 28.3452 6.05898Z" fill="#33475B"/>
<path d="M33.6878 3.56348V2.31851C34.0412 2.16166 34.2677 1.82519 34.2694 1.45453V1.42547C34.2679 0.897179 33.8177 0.46927 33.2618 0.467851H33.2313C32.6754 0.46927 32.2252 0.897179 32.2237 1.42547V1.45453C32.2254 1.82519 32.4519 2.16166 32.8053 2.31851V3.56348C32.3076 3.63581 31.8388 3.83184 31.4465 4.13172L27.8497 1.47196C27.8753 1.38422 27.889 1.29373 27.8905 1.20269C27.8912 0.606055 27.3829 0.121808 26.7552 0.121095C26.1274 0.120382 25.6179 0.603473 25.6172 1.20011C25.6164 1.79674 26.1247 2.28099 26.7525 2.28171C26.9499 2.28101 27.1437 2.2309 27.3143 2.13642L30.8506 4.75291C30.1988 5.68764 30.2163 6.90656 30.8948 7.824L29.8186 8.84684C29.7322 8.8207 29.6423 8.80677 29.5516 8.80551C29.1738 8.80551 28.8331 9.02184 28.6885 9.35361C28.544 9.68539 28.6239 10.0673 28.8911 10.3212C29.1582 10.5751 29.56 10.6511 29.9091 10.5137C30.2582 10.3763 30.4858 10.0525 30.4858 9.69339C30.4846 9.60723 30.4699 9.52171 30.4423 9.43962L31.5069 8.42776C32.4591 9.11898 33.7628 9.17544 34.7771 8.56939C35.7914 7.96334 36.303 6.82227 36.0604 5.70715C35.8177 4.59202 34.8719 3.73742 33.6878 3.56348ZM33.2469 7.6587C32.4334 7.6587 31.774 7.03192 31.774 6.25876C31.774 5.48559 32.4334 4.85881 33.2469 4.85881C34.0604 4.85881 34.7198 5.48559 34.7198 6.25876C34.7198 7.03192 34.0604 7.6587 33.2469 7.6587Z" fill="#FF7A59"/>
</g>
<defs>
<clipPath id="clip0_867_69">
<rect width="40" height="10.9524" fill="white"/>
</clipPath>
</defs>
</svg>
