<svg width="40" height="17" viewBox="0 0 40 17" fill="none" xmlns="http://www.w3.org/2000/svg">
<g clip-path="url(#clip0_867_56)">
<path d="M16.2048 8.79894H15.3745V10.9098H14.375V5.44771H16.7661C17.0001 5.42135 17.2372 5.44539 17.4612 5.51823C17.6852 5.59107 17.891 5.71101 18.0649 5.86999C18.2389 6.02915 18.377 6.22362 18.47 6.44042C18.5629 6.65721 18.6085 6.89134 18.6037 7.12716C18.6366 7.92898 18.0647 8.62816 17.2734 8.75273L18.7419 10.9098H17.558L16.2048 8.79894ZM15.3745 7.8899H16.7737C17.3273 7.8899 17.6117 7.62031 17.6117 7.11949C17.6117 6.61866 17.3273 6.34908 16.7737 6.34908H15.3746V7.8899H15.3745ZM22.7321 8.52935V10.9098H21.9631L21.9018 10.3474C21.7393 10.5568 21.5304 10.7256 21.2916 10.8406C21.0529 10.9556 20.7907 11.0136 20.5257 11.0101C20.3531 11.0249 20.1794 11.004 20.0153 10.9486C19.8512 10.8932 19.7004 10.8046 19.5721 10.6883C19.4436 10.5718 19.3405 10.4301 19.2691 10.272C19.1977 10.114 19.1596 9.94294 19.1571 9.76953C19.1571 8.87602 19.9797 8.52168 20.7408 8.52168C21.1176 8.52223 21.4926 8.5741 21.8557 8.67565V8.55236C21.8557 7.98232 21.5482 7.70487 20.9407 7.70487C20.5155 7.70487 20.101 7.83967 19.7567 8.09026L19.4031 7.42761C19.8959 7.06826 20.4923 6.87901 21.1021 6.88844C21.3232 6.86226 21.5474 6.88676 21.7576 6.96008C21.9678 7.0334 22.1586 7.15363 22.3155 7.31163C22.4725 7.46986 22.5916 7.66166 22.6638 7.87259C22.7359 8.08352 22.7593 8.30808 22.7321 8.52935ZM21.8249 9.29976C21.5149 9.21004 21.1941 9.16333 20.8714 9.16095C20.4103 9.16095 20.0566 9.3151 20.0566 9.71565C20.0566 10.1164 20.318 10.2318 20.7178 10.2318C20.9866 10.2531 21.253 10.1682 21.4599 9.99544C21.6668 9.82265 21.7979 9.57567 21.8249 9.30743V9.29976ZM23.6855 5.0625H24.6004V10.9098H23.6853L23.6855 5.0625ZM27.445 10.2011C27.8179 10.1978 28.1755 10.0517 28.4444 9.79273L29.021 10.3936C28.5944 10.799 28.0256 11.0204 27.4373 11.0101C27.1626 11.0186 26.8891 10.9706 26.6338 10.869C26.3785 10.7674 26.1468 10.6143 25.9531 10.4194C25.7591 10.2242 25.6072 9.99134 25.5068 9.73515C25.4064 9.47896 25.3595 9.2049 25.3692 8.9299C25.3559 8.65839 25.3995 8.38711 25.4972 8.13344C25.5949 7.87977 25.7445 7.64931 25.9365 7.45684C26.1282 7.26466 26.358 7.11479 26.6112 7.01689C26.8644 6.91899 27.1353 6.87523 27.4064 6.88844C27.6528 6.87219 27.8999 6.9078 28.1317 6.99296C28.3635 7.07812 28.5749 7.21095 28.7522 7.38287C28.9297 7.55505 29.0692 7.76245 29.1619 7.99175C29.2545 8.22106 29.2982 8.4672 29.2901 8.71437C29.2766 8.89308 29.251 9.07066 29.2134 9.24588H26.3071C26.3396 9.52 26.4754 9.77141 26.6868 9.94889C26.8982 10.1264 27.1693 10.2166 27.445 10.2011ZM26.3071 8.58323H28.3905C28.387 8.45831 28.3578 8.33545 28.3047 8.22232C28.2515 8.10919 28.1757 8.00822 28.0818 7.9257C27.9881 7.84333 27.8784 7.78121 27.7595 7.74325C27.6406 7.70528 27.5152 7.69228 27.3911 7.70506C27.1344 7.69415 26.8826 7.77738 26.683 7.9391C26.4833 8.10082 26.3497 8.32988 26.3071 8.58323ZM29.9821 5.87127C29.982 5.71822 30.0426 5.57139 30.1507 5.46305C30.2588 5.35471 30.4055 5.29374 30.5586 5.29355C30.6344 5.29362 30.7094 5.30863 30.7794 5.33771C30.8494 5.3668 30.913 5.40939 30.9666 5.46305C31.0201 5.51672 31.0626 5.5804 31.0915 5.65048C31.1204 5.72055 31.1353 5.79564 31.1352 5.87145C31.1353 5.94724 31.1204 6.02231 31.0915 6.09236C31.0625 6.16242 31.0201 6.22608 30.9665 6.27973C30.913 6.33338 30.8494 6.37595 30.7794 6.40502C30.7094 6.43409 30.6344 6.44909 30.5586 6.44917C30.4055 6.44897 30.2588 6.388 30.1507 6.27967C30.0426 6.17133 29.982 6.02431 29.9821 5.87127ZM31.0123 10.9098H30.0897V6.98834H30.9969L31.0123 10.9098ZM35.6866 7.57392L35.0486 7.62798C35.175 7.85083 35.2387 8.10372 35.2331 8.35985C35.2323 8.56883 35.1875 8.7753 35.1016 8.96581C35.0157 9.15633 34.8907 9.32662 34.7346 9.46561C34.5788 9.60442 34.3954 9.70875 34.1964 9.77176C33.9975 9.83478 33.7875 9.85505 33.5801 9.83127C33.4251 9.83232 33.2705 9.81683 33.1187 9.78506C32.9036 9.78506 32.7575 9.89282 32.7575 10.0932C32.7575 10.2936 32.8959 10.3628 33.1187 10.3628H33.7186C35.0563 10.3628 35.7021 10.7326 35.7021 11.6031C35.7021 12.4738 35.0793 12.9591 33.7186 12.9591C32.3578 12.9591 31.6656 12.4044 31.6656 11.6572C31.6649 11.4802 31.7163 11.3069 31.8134 11.1589C31.9105 11.0109 32.049 10.8948 32.2117 10.8251C32.1145 10.7426 32.0366 10.6399 31.9835 10.524C31.9303 10.4082 31.9033 10.2822 31.9041 10.1547C31.9036 9.99748 31.9512 9.84381 32.0405 9.71439C32.1298 9.58496 32.2566 9.48597 32.4039 9.43072C32.2521 9.29742 32.1314 9.13243 32.0504 8.9474C31.9693 8.76236 31.9299 8.5618 31.9348 8.35985C31.9354 8.15014 31.9804 7.94293 32.0667 7.7518C32.153 7.56068 32.2787 7.38995 32.4356 7.25081C32.5924 7.11187 32.7768 7.00774 32.9767 6.94527C33.1766 6.88281 33.3875 6.86344 33.5955 6.88844C33.8197 6.88807 34.0426 6.92182 34.2566 6.98853H35.7019L35.6866 7.57392ZM33.6954 11.11H32.9881C32.7189 11.2258 32.5882 11.3798 32.5882 11.611C32.5882 11.842 32.9187 12.1964 33.7107 12.1964C34.5027 12.1964 34.764 11.9962 34.764 11.6031C34.764 11.2104 34.5025 11.11 33.6954 11.11ZM34.3796 8.35985C34.3796 7.92076 34.1029 7.65866 33.6108 7.65866C33.1187 7.65866 32.842 7.92076 32.842 8.35985C32.842 8.79894 33.1187 9.06086 33.611 9.06086C34.1029 9.06086 34.3796 8.79894 34.3796 8.35985ZM39.9766 8.42908V10.9098H39.0771V8.59857C39.0978 8.47868 39.0899 8.35559 39.054 8.23934C39.018 8.1231 38.9551 8.017 38.8703 7.92971C38.7857 7.84256 38.6815 7.77675 38.5664 7.7377C38.4514 7.69864 38.3287 7.68746 38.2084 7.70506C38.0833 7.69562 37.9575 7.71141 37.8386 7.75151C37.7197 7.79161 37.6101 7.85519 37.5162 7.93848C37.4223 8.02189 37.346 8.12328 37.2919 8.23665C37.2378 8.35002 37.2069 8.47308 37.2011 8.59857V10.9098H36.2941V5.0625H37.2011V7.4278C37.3527 7.24955 37.5431 7.1083 37.7576 7.01482C37.9721 6.92134 38.2051 6.87812 38.4389 6.88844C38.6438 6.87734 38.8488 6.90958 39.0404 6.98307C39.232 7.05656 39.406 7.16964 39.5509 7.31492C39.696 7.46042 39.8088 7.6348 39.8822 7.82674C39.9555 8.01869 39.9876 8.22391 39.9765 8.42908H39.9766Z" fill="#006937"/>
<path d="M7.40973 15.6776H7.14817V16.3556H7.00991V15.6776H6.74854V15.5622H7.40973V15.6776ZM8.37064 16.3556H8.23219V15.7856L8.01703 16.2709H7.87091L7.68644 15.7856V16.3556H7.5173V15.5854H7.68644L7.92479 16.1324L8.16315 15.5854H8.34762L8.37064 16.3556ZM6.16406 1.64858L7.2174 1.04767V0L6.16406 0.608584V1.64858ZM6.16406 10.3156L8.89338 8.73644V6.25571L6.16406 7.83507V10.3156ZM6.75621 13.7286L8.37082 12.7887V11.5021L6.75621 12.4343V13.7286Z" fill="#74A900"/>
<path d="M10.4221 7.84969L12.3287 6.74046V5.22266L10.4219 6.33225L10.4221 7.84969Z" fill="#A7C140"/>
<path d="M6.16376 5.26194L8.33965 3.99838V1.95692L6.16376 3.21263V5.26194ZM4.70312 0.839844L5.5718 1.34048C5.75037 1.44838 5.89756 1.60117 5.99872 1.78363C6.09989 1.96609 6.1515 2.17187 6.14842 2.38048V2.95838L5.30276 2.45756C5.12156 2.35261 4.97092 2.20216 4.86574 2.02109C4.76057 1.84002 4.70451 1.63462 4.70312 1.42523V0.839844Z" fill="#74A900"/>
<path d="M8.60923 5.62322L10.1468 4.72952V3.38139L8.60923 4.27509V5.62322ZM8.60156 11.1933L10.4237 10.1377V8.25792L8.60156 9.30577V11.1933ZM10.7004 11.1317L11.7999 10.4923V9.34431L10.7004 9.97591V11.1317ZM9.87773 2.91143L10.7004 2.43381V1.61719L9.87773 2.09481V2.91143Z" fill="#A7C140"/>
<path d="M3.19091 8.1983L2.30689 7.70515C2.03433 7.55191 1.80827 7.32783 1.65264 7.05662C1.49702 6.7854 1.41763 6.47716 1.42287 6.16451V5.30168L2.30689 5.82552C2.57519 5.98176 2.79663 6.20716 2.94808 6.4782C3.09953 6.74923 3.17545 7.05595 3.1679 7.36634L3.19109 8.1983H3.19091ZM1.9763 10.3709L0.861596 9.73145C0.593811 9.57462 0.372786 9.34909 0.221381 9.0782C0.0699758 8.80731 -0.00631171 8.50089 0.00040858 8.19063V7.25054L1.11529 7.89766C1.37674 8.05001 1.59377 8.26812 1.74481 8.53032C1.89586 8.79252 1.97566 9.08968 1.9763 9.39228V10.3709ZM1.13831 5.30168L0.684609 5.03958C0.558331 4.96553 0.453593 4.85976 0.380772 4.73277C0.307952 4.60577 0.269577 4.46195 0.26945 4.31556V3.9225L0.723148 4.18442C0.849454 4.25849 0.954209 4.36429 1.02703 4.49131C1.09985 4.61834 1.13821 4.7622 1.13831 4.90862V5.30168ZM3.76771 12.9517L2.82963 12.4047C2.61118 12.28 2.42985 12.0994 2.30422 11.8814C2.17859 11.6635 2.1132 11.4161 2.11475 11.1645V10.7866L3.05265 11.326C3.26955 11.4525 3.44964 11.6335 3.57507 11.851C3.70049 12.0685 3.7669 12.3151 3.76771 12.5662V12.9517ZM3.44479 3.98424L2.82196 3.62205C2.67632 3.53952 2.55535 3.41962 2.47155 3.27471C2.38774 3.1298 2.34414 2.96515 2.34525 2.79775V2.02734L2.96808 2.38954C3.11433 2.47331 3.23559 2.59456 3.31938 2.7408C3.40318 2.88703 3.44647 3.05297 3.44479 3.2215V3.98424Z" fill="#4A8B2C"/>
<path d="M6.15143 16.3551H5.58248V12.5493L4.49079 11.9407C4.17335 11.7568 3.90972 11.4928 3.72626 11.1751C3.54279 10.8574 3.44592 10.4971 3.44531 10.1303V8.35841L5.12897 9.32901C5.44268 9.51522 5.70215 9.78035 5.88153 10.098C6.06092 10.4157 6.15398 10.7748 6.15143 11.1396V16.3551ZM6.15143 8.05796L4.74449 7.23366C4.4463 7.0609 4.19899 6.81249 4.02757 6.51352C3.85615 6.21456 3.76669 5.87563 3.76823 5.53101V3.85156L5.18285 4.67585C5.47961 4.84958 5.72538 5.09842 5.89542 5.39732C6.06545 5.69622 6.15375 6.03463 6.15143 6.3785V8.05796Z" fill="#74A900"/>
</g>
<defs>
<clipPath id="clip0_867_56">
<rect width="40" height="16.4384" fill="white"/>
</clipPath>
</defs>
</svg>
