<svg width="40" height="6" viewBox="0 0 40 6" fill="none" xmlns="http://www.w3.org/2000/svg">
<g clip-path="url(#clip0_867_67)">
<path fill-rule="evenodd" clip-rule="evenodd" d="M11.1623 2.86774C11.2355 2.45548 11.4906 2.01387 12.0042 2.01387C12.4523 2.01387 12.6558 2.4171 12.6558 2.79129C12.6558 2.85129 12.6461 2.86774 12.5765 2.86774H11.1623ZM12.0323 1.53806C11.0919 1.53806 10.4097 2.36548 10.4097 3.50613C10.4097 4.66645 11.029 5.35968 12.0668 5.35968C12.6223 5.35968 13.0706 5.11129 13.2106 4.8771L13.2245 4.85355L13.1868 4.53194L13.0835 4.58484C12.8358 4.71194 12.5381 4.77645 12.1997 4.77645C11.4048 4.77645 11.1223 4.08677 11.1223 3.44161C11.1223 3.40161 11.1223 3.35871 11.1239 3.31516H13.371L13.3813 3.24645C13.3965 3.14742 13.3965 3.07226 13.3965 2.97677C13.3965 2.28387 12.9697 1.53806 12.0323 1.53806ZM35.6245 0.787419H35.2587L35.2426 0.847097C35.1355 1.24226 34.9955 1.50194 34.5632 1.74097L34.5213 1.76387V2.12097H34.9471V4.43516C34.9471 5.08355 35.1987 5.35935 35.7884 5.35935C36.14 5.35935 36.5045 5.21 36.6181 5.02L36.6336 4.99355L36.5819 4.72742L36.4932 4.75968C36.3376 4.81095 36.1751 4.83825 36.0113 4.84064C35.761 4.84064 35.6245 4.75677 35.6245 4.31355V2.12097H36.6361V1.62419H35.6245V0.787419ZM15.4926 3.68194C15.4861 3.87935 15.4755 4.28452 15.4745 4.51903C15.3519 4.65064 15.1265 4.78355 14.8365 4.78355C14.5332 4.78355 14.3452 4.59806 14.3452 4.29968C14.3452 3.88839 14.6677 3.67968 15.3042 3.67968H15.3139C15.3648 3.67968 15.4323 3.67968 15.4926 3.68194ZM16.159 4.49968C16.159 4.16742 16.1665 3.86161 16.1739 3.5671C16.1806 3.29097 16.1871 3.02484 16.1871 2.75548C16.1871 1.98194 15.7277 1.53806 14.9274 1.53806C14.5187 1.53806 14.089 1.76 13.9097 1.97484L13.8858 2.0029L13.9458 2.36L14.0458 2.30387C14.2645 2.18097 14.5119 2.12129 14.8016 2.12129C15.2865 2.12129 15.5026 2.35677 15.5026 2.88419V3.21452C15.4026 3.21097 15.2819 3.21097 15.2065 3.21097C14.2629 3.21097 13.6535 3.67484 13.6535 4.39258C13.6535 4.96226 14.0626 5.35968 14.6481 5.35968C15.0255 5.35968 15.3516 5.16613 15.5342 4.97677C15.6029 5.21452 15.8097 5.35968 16.0994 5.35968C16.3187 5.35968 16.5445 5.30387 16.6742 5.21742L16.7103 5.19355V4.86968H16.6297C16.2242 4.86968 16.159 4.78161 16.159 4.49968ZM19.0439 1.53806C18.8052 1.53806 18.4703 1.7 18.2455 1.90774V1.45806L18.1316 1.50968C17.7906 1.66323 17.5445 1.73871 17.1723 1.84871L17.1142 1.86613V2.16355L17.1787 2.17677C17.5677 2.25645 17.5677 2.28548 17.5677 2.64129V4.38516C17.5677 4.84871 17.5129 4.85839 17.4058 4.87742L17.1074 4.92387V5.27677L17.1913 5.27355C17.2442 5.27129 17.3055 5.26806 17.3726 5.26419C17.5481 5.25283 17.7238 5.24648 17.8997 5.24516C18.0997 5.24516 18.3642 5.25742 18.5577 5.26677L18.7965 5.27677V4.92064L18.4061 4.8771C18.3094 4.86419 18.2455 4.85452 18.2455 4.38516V2.40129C18.4335 2.25677 18.6771 2.17129 18.9042 2.17129C19.0381 2.17129 19.1906 2.19548 19.2513 2.22677L19.3545 2.27968L19.4319 1.60065L19.3639 1.58355C19.2598 1.55397 19.1521 1.53845 19.0439 1.53806ZM22.1936 4.56903C21.9981 4.7029 21.7268 4.77677 21.43 4.77677C20.7181 4.77677 20.2758 4.26258 20.2758 3.43452C20.2758 2.59387 20.69 2.0071 21.2835 2.0071C21.6797 2.0071 21.8577 2.1871 21.8794 2.60935L21.8835 2.68613H22.3061V2.60548C22.3061 2.36516 22.3132 2.02677 22.3336 1.79742L22.3387 1.73613L22.2806 1.71484C21.9751 1.60028 21.6518 1.54044 21.3255 1.53806C20.3577 1.53806 19.5703 2.42097 19.5703 3.50581C19.5703 4.64935 20.2106 5.35968 21.2413 5.35968C21.7735 5.35968 22.199 5.10935 22.3439 4.86194L22.359 4.83613L22.2955 4.49903L22.1936 4.56903ZM33.06 3.68194C33.0508 3.96089 33.0449 4.23994 33.0423 4.51903C32.9197 4.65064 32.6942 4.78355 32.4045 4.78355C32.1013 4.78355 31.9129 4.59806 31.9129 4.29968C31.9129 3.88839 32.2355 3.67968 32.8719 3.67968H32.8816C32.9323 3.67968 32.9997 3.67968 33.06 3.68194ZM33.7268 4.49968C33.7268 4.16742 33.7345 3.86161 33.7416 3.5671C33.7484 3.29097 33.7548 3.02484 33.7548 2.75548C33.7548 1.98194 33.2955 1.53806 32.4952 1.53806C32.0865 1.53806 31.6568 1.76 31.4774 1.97452L31.4535 2.0029L31.5136 2.36L31.6136 2.30387C31.8329 2.18097 32.0797 2.12129 32.3694 2.12129C32.8539 2.12129 33.07 2.35677 33.07 2.88419V3.21452C32.97 3.21097 32.8497 3.21097 32.7739 3.21097C31.8306 3.21097 31.2213 3.67484 31.2213 4.39258C31.2213 4.96226 31.6303 5.35968 32.2161 5.35968C32.5936 5.35968 32.9197 5.16613 33.1023 4.97677C33.1706 5.21419 33.3774 5.35968 33.6671 5.35968C33.8897 5.35968 34.1097 5.30484 34.2419 5.21742L34.2781 5.19355V4.86968H34.1974C33.7919 4.86968 33.7268 4.78161 33.7268 4.49968ZM25.9687 4.38516V2.84097C25.9687 2.28161 25.8506 1.53806 24.8277 1.53806C24.4932 1.53806 24.151 1.71742 23.9106 1.90645V0L23.7932 0.06C23.4597 0.230968 23.2094 0.330968 22.8371 0.440645L22.779 0.457419V0.755161L22.8436 0.768387C23.2332 0.848064 23.2332 0.877097 23.2332 1.2329V4.38516C23.2332 4.84871 23.1784 4.85839 23.0713 4.8771L22.7726 4.92387V5.27677L22.969 5.26871C23.1342 5.26161 23.3471 5.25258 23.5648 5.25258C23.7836 5.25258 24.0161 5.26226 24.1881 5.26935L24.371 5.27677V4.92387L24.0748 4.87742C23.9726 4.85871 23.9103 4.84742 23.9103 4.38516V2.3629C24.0352 2.28452 24.3316 2.12097 24.6394 2.12097C25.1206 2.12097 25.291 2.33 25.291 2.91968V4.38516C25.291 4.84871 25.2361 4.85839 25.129 4.8771L24.8306 4.92387V5.27677L25.0268 5.26871C25.1923 5.26161 25.4055 5.25258 25.6229 5.25258C25.841 5.25258 26.0739 5.26226 26.2455 5.26935L26.4294 5.27677V4.92387L26.1332 4.87742C26.03 4.85871 25.9687 4.84742 25.9687 4.38516ZM37.6048 2.86774C37.6777 2.45548 37.9332 2.01387 38.4461 2.01387C38.8945 2.01387 39.0984 2.4171 39.0984 2.79129C39.0984 2.85129 39.0887 2.86774 39.0184 2.86774H37.6048ZM38.4742 1.53806C37.5339 1.53806 36.8516 2.36548 36.8516 3.50613C36.8516 4.66645 37.4713 5.35968 38.5097 5.35968C39.0645 5.35968 39.5129 5.11129 39.6529 4.8771L39.6668 4.85355L39.6294 4.53194L39.5261 4.58484C39.2781 4.71194 38.9803 4.77645 38.6416 4.77645C37.8471 4.77645 37.5642 4.08677 37.5642 3.44161C37.5642 3.40161 37.5642 3.35871 37.5658 3.31516H39.8142L39.8239 3.24645C39.8387 3.14742 39.8387 3.07226 39.8387 2.97677C39.8387 2.28387 39.4119 1.53806 38.4742 1.53806ZM30.1232 3.13226C29.7781 3.13226 29.5174 3.12065 29.3452 3.11323L29.1984 3.10742V3.46548L29.5281 3.52806C29.6419 3.55065 29.7494 3.57161 29.7494 4.01355V4.77419C29.53 4.8871 29.19 4.90484 29 4.90484C28.1161 4.90484 27.5452 4.14548 27.5452 2.97C27.5452 1.81226 28.1323 1.03452 29.0065 1.03452C29.57 1.03452 29.9032 1.33774 29.9448 1.88935L29.9506 1.96355H30.3842L30.3777 1.8771C30.3494 1.48871 30.3429 1.16871 30.3358 0.859355L30.3348 0.804194L30.2832 0.785484C30.0248 0.69129 29.6132 0.566129 29.0206 0.566129C27.7206 0.566129 26.7774 1.59806 26.7774 3.01968C26.7774 4.44968 27.6194 5.37355 28.9226 5.37355C29.5384 5.37355 30.1565 5.22774 30.399 5.12387L30.4481 5.1029V4.00613C30.4481 3.58355 30.5184 3.54806 30.641 3.52064L30.9226 3.46484V3.10742L30.73 3.11581C30.5716 3.1229 30.3742 3.13194 30.1232 3.13194M4.83452 2.86774C4.90742 2.45548 5.1629 2.01387 5.67613 2.01387C6.12419 2.01387 6.32774 2.4171 6.32774 2.79129C6.32774 2.85129 6.31807 2.86774 6.24839 2.86774H4.83452ZM5.70419 1.53806C4.76387 1.53806 4.08161 2.36548 4.08161 3.50613C4.08161 4.66645 4.70097 5.35968 5.73903 5.35968C6.29387 5.35968 6.74226 5.11129 6.88258 4.8771L6.89677 4.85355L6.85903 4.53194L6.75581 4.58484C6.50742 4.71194 6.21 4.77645 5.87161 4.77645C5.0771 4.77645 4.79419 4.08677 4.79419 3.44161C4.79419 3.40161 4.79419 3.35871 4.79581 3.31516H7.04323L7.05355 3.24645C7.06839 3.14742 7.06839 3.07226 7.06839 2.97677C7.06839 2.28387 6.64161 1.53806 5.70387 1.53806H5.70419ZM8.84258 3.04516C8.41742 2.87871 8.15677 2.76194 8.15677 2.46226C8.15677 2.05355 8.53903 1.99258 8.76677 1.99258C9.17645 1.99258 9.36516 2.17774 9.39807 2.61129L9.40387 2.68581H9.82323L9.8171 2.59968C9.79645 2.2971 9.78968 2.11097 9.80323 1.80839L9.80581 1.75161L9.75323 1.73C9.52742 1.6371 9.15645 1.53806 8.79516 1.53806C8.05323 1.53806 7.53484 1.95935 7.53484 2.56226C7.53484 3.32548 8.11677 3.53774 8.58452 3.70871C9.01936 3.86742 9.28613 3.98161 9.28613 4.31387C9.28613 4.66 9.02484 4.88355 8.62032 4.88355C8.08161 4.88355 7.95774 4.6529 7.89806 4.16806L7.88936 4.09742H7.47419L7.47968 4.1829C7.50032 4.5171 7.51419 4.77968 7.50032 5.11097L7.49806 5.17194L7.55548 5.19097C7.90097 5.30613 8.24161 5.35968 8.62774 5.35968C9.34968 5.35968 9.91516 4.86258 9.91516 4.22806C9.91516 3.46419 9.32032 3.23161 8.84258 3.04516ZM2.58839 1.92613C2.58839 2.45839 2.23677 2.78903 1.67129 2.78903C1.47548 2.78903 1.37258 2.78419 1.24968 2.77419V1.12903C1.39613 1.12032 1.57419 1.12032 1.73419 1.12032C2.28516 1.12032 2.58839 1.40645 2.58839 1.92613ZM3.39903 4.57452C3.05323 4.18806 2.68387 3.66613 2.39839 3.16226C2.93548 2.98387 3.34258 2.44452 3.34258 1.89032C3.34258 1.10581 2.78839 0.637419 1.85968 0.637419C1.63806 0.637419 1.44032 0.643871 1.25742 0.649355C1.10065 0.654194 0.954839 0.659032 0.813226 0.659032C0.539677 0.659032 0.256774 0.659032 0.083871 0.651613L0 0.648387V1.00645L0.330323 1.06871C0.443871 1.09129 0.55129 1.11226 0.55129 1.55452V4.37097C0.55129 4.8129 0.443871 4.83419 0.330645 4.85613L0 4.91871V5.27677L0.165806 5.27032C0.355484 5.26323 0.641936 5.25226 0.924839 5.25226C1.2429 5.25226 1.65323 5.26677 1.81484 5.27355L1.89839 5.27677V4.91548L1.4671 4.85581C1.35516 4.83871 1.24968 4.8229 1.24968 4.37097V3.26355C1.37484 3.27129 1.4971 3.27194 1.65871 3.27194C2.09032 4.05645 2.49065 4.62742 2.70387 4.87935C2.94097 5.17065 3.29516 5.33097 3.70161 5.33097C3.83516 5.33097 3.97129 5.30613 4.05645 5.26645L4.10323 5.24419V4.92645H4.02258C3.82903 4.92645 3.60161 4.79806 3.39903 4.57484" fill="black"/>
</g>
<defs>
<clipPath id="clip0_867_67">
<rect width="40" height="5.48387" fill="white"/>
</clipPath>
</defs>
</svg>
