<svg width="40" height="10" viewBox="0 0 40 10" fill="none" xmlns="http://www.w3.org/2000/svg">
<g clip-path="url(#clip0_867_96)">
<path d="M37.5231 8.15963C36.0599 8.15963 35.0469 7.13721 35.0469 5.68333C35.0469 4.22945 36.0599 3.20703 37.5231 3.20703C38.9862 3.20703 39.999 4.22945 39.999 5.68333C39.999 7.13721 38.9862 8.15963 37.5231 8.15963ZM36.2286 5.68333C36.2286 6.61196 36.7258 7.18412 37.5231 7.18412C38.3201 7.18412 38.8172 6.61196 38.8172 5.68333C38.8172 4.75473 38.3201 4.18254 37.5231 4.18254C36.7258 4.18254 36.2286 4.75473 36.2286 5.68333Z" fill="#1D1D1B"/>
<path d="M29.7422 9.48534V3.33835H30.8772V3.76045C31.2429 3.40401 31.74 3.20703 32.3215 3.20703C33.5781 3.20703 34.441 4.22945 34.441 5.68333C34.441 7.13721 33.5406 8.15963 32.2276 8.15963C31.7117 8.15963 31.2616 7.99079 30.924 7.68126V9.48534H29.7422ZM30.8772 5.68333C30.8772 6.61196 31.3367 7.18412 32.0682 7.18412C32.7999 7.18412 33.2592 6.61196 33.2592 5.68333C33.2592 4.75473 32.7999 4.18254 32.0682 4.18254C31.3367 4.18254 30.8772 4.75473 30.8772 5.68333Z" fill="#1D1D1B"/>
<path d="M27.6776 5.22371C27.6776 4.87666 27.6212 4.66094 27.5086 4.50148C27.3774 4.31386 27.1616 4.20132 26.899 4.20132C26.6083 4.20132 26.3644 4.3045 26.1862 4.50148C25.9986 4.70782 25.8955 5.01737 25.8955 5.50513V8.02831H24.7137V5.22371C24.7137 4.83914 24.6387 4.59528 24.4886 4.43582C24.3573 4.28573 24.1698 4.20132 23.9353 4.20132C23.6727 4.20132 23.4476 4.28573 23.2788 4.44518C23.0536 4.65155 22.9317 4.97985 22.9317 5.50513V8.02831H21.75V3.33835H22.8755V3.7417C23.1944 3.40401 23.6914 3.20703 24.2917 3.20703C24.8825 3.20703 25.3515 3.46031 25.6329 3.88241C25.9799 3.46031 26.552 3.20703 27.2555 3.20703C27.7336 3.20703 28.1464 3.37587 28.4278 3.66665C28.6999 3.94807 28.8593 4.342 28.8593 4.9986V8.02831H27.6776V5.22371Z" fill="#1D1D1B"/>
<path d="M18.676 8.15963C17.2785 8.15963 16.3125 7.13721 16.3125 5.68333C16.3125 4.22945 17.2598 3.20703 18.6197 3.20703C19.989 3.20703 20.9269 4.22945 20.9269 5.68333C20.9269 5.83343 20.9175 5.98349 20.8988 6.1242H17.4942C17.5786 6.79016 18.0194 7.18412 18.676 7.18412C19.1355 7.18412 19.4732 6.97775 19.6326 6.61196H20.8613C20.6268 7.54056 19.8015 8.15963 18.676 8.15963ZM17.4942 5.20496H19.7264C19.6326 4.56714 19.2387 4.18254 18.6197 4.18254C18.0101 4.18254 17.588 4.55775 17.4942 5.20496Z" fill="#1D1D1B"/>
<path d="M13.6571 8.03077V2.53415H11.6406V1.46484H16.8928V2.53415H14.8763V8.03077H13.6571Z" fill="#1D1D1B"/>
<path d="M5.07815 0L2.03296 3.0455L1.01634 2.02878L0 3.04522L1.01607 4.06142C1.57771 4.6231 2.48821 4.6231 3.04985 4.06142L6.09475 1.01617L5.07815 0Z" fill="#F54D42"/>
<path d="M0.289062 6.64641L4.44886 7.76113L4.07675 9.15L5.4651 9.52206L5.83702 8.13395C6.04257 7.36663 5.58733 6.57803 4.82012 6.37245L0.660695 5.25781L0.289062 6.64641Z" fill="#9664FE"/>
<path d="M8.44274 7.48337L7.32813 3.32315L8.71686 2.95099L8.34486 1.5625L6.95686 1.93445C6.18965 2.14004 5.73441 2.92865 5.93999 3.69594L7.0545 7.85581L8.44274 7.48337Z" fill="#FFCC24"/>
</g>
<defs>
<clipPath id="clip0_867_96">
<rect width="40" height="9.52381" fill="white"/>
</clipPath>
</defs>
</svg>
