<svg width="24" height="24" viewBox="0 0 24 24" fill="none" xmlns="http://www.w3.org/2000/svg">
<path d="M18.495 14.5015C16.66 14.4825 15.6365 14.6675 13.689 15.463L13.311 14.537C15.3745 13.6945 16.53 13.481 18.505 13.5015L18.495 14.5015ZM13.689 13.463C15.6365 12.668 16.6605 12.4825 18.495 12.5015L18.505 11.5015C16.53 11.481 15.375 11.6945 13.311 12.537L13.689 13.463ZM18.495 10.5015C16.66 10.4825 15.6365 10.6675 13.689 11.463L13.311 10.537C15.3745 9.6945 16.53 9.481 18.505 9.5015L18.495 10.5015ZM17.25 8V6.5H18.25V8H17.25ZM15.5 7V8.5H16.5V7H15.5ZM13.75 9V7.5H14.75V9H13.75ZM5.505 14.5015C7.34 14.4825 8.3635 14.6675 10.311 15.463L10.689 14.537C8.6255 13.6945 7.47 13.481 5.495 13.5015L5.505 14.5015ZM10.311 13.463C8.3635 12.668 7.34 12.4825 5.505 12.5015L5.495 11.5015C7.47 11.481 8.625 11.6945 10.689 12.537L10.311 13.463ZM5.505 10.5015C7.34 10.4825 8.3635 10.6675 10.311 11.463L10.689 10.537C8.6255 9.6945 7.47 9.481 5.495 9.5015L5.505 10.5015ZM6.75 8V6.5H5.75V8H6.75ZM8.5 7V8.5H7.5V7H8.5ZM10.25 9V7.5H9.25V9H10.25Z" fill="black"/>
<path fill-rule="evenodd" clip-rule="evenodd" d="M21 5.492C21.203 5.53667 21.4102 5.5845 21.6215 5.6355C21.7296 5.66168 21.8258 5.72354 21.8945 5.81108C21.9631 5.89862 22.0003 6.00674 22 6.118V18.8875C22 19.204 21.7085 19.44 21.398 19.381C18.2915 18.7885 16.198 18.747 13.337 19.181C13.2115 19.4277 13.0202 19.6349 12.7842 19.7797C12.5482 19.9244 12.2768 20.001 12 20.001C11.7232 20.001 11.4518 19.9244 11.2158 19.7797C10.9798 19.6349 10.7885 19.4277 10.663 19.181C7.8025 18.747 5.708 18.7885 2.602 19.381C2.52902 19.3953 2.45379 19.3933 2.38168 19.3751C2.30957 19.357 2.24235 19.3231 2.18484 19.2759C2.12733 19.2288 2.08095 19.1695 2.04899 19.1024C2.01704 19.0352 2.00031 18.9619 2 18.8875V6.1185C1.99958 6.00715 2.0367 5.89892 2.10538 5.81127C2.17406 5.72363 2.27028 5.6617 2.3785 5.6355C2.58984 5.5845 2.797 5.53667 3 5.492V5.262C3 4.8195 3.2945 4.415 3.742 4.302C6.817 3.529 9.056 4.348 11.6205 5.5405C11.7455 5.56617 11.872 5.59283 12 5.6205C12.128 5.59283 12.2547 5.56617 12.38 5.5405C14.944 4.348 17.183 3.529 20.258 4.3025C20.471 4.35672 20.6598 4.48062 20.7942 4.65449C20.9287 4.82836 21.0011 5.04221 21 5.262V5.492ZM20 16.984V5.2685C17.171 4.561 15.1585 5.336 12.5 6.5885V18.2095L12.5015 18.2105L12.5025 18.211L12.507 18.2125H12.5085L12.5115 18.2115C14.966 17.1005 17.107 16.47 19.973 16.993C19.9771 16.9938 19.9813 16.9937 19.9853 16.9927C19.9894 16.9918 19.9932 16.99 19.9965 16.9875L20 16.984ZM11.4985 18.2105L11.5 18.2095V6.5885C8.8415 5.3365 6.829 4.561 4 5.2685V16.984L4.0035 16.9875C4.00685 16.9901 4.01072 16.9921 4.01486 16.9931C4.01899 16.9941 4.02331 16.9943 4.0275 16.9935C6.8925 16.47 9.034 17.1005 11.4885 18.211L11.4925 18.2125L11.4985 18.2105Z" fill="black"/>
</svg>
