<svg width="24" height="24" viewBox="0 0 24 24" fill="none" xmlns="http://www.w3.org/2000/svg">
<path d="M3 21V3H11.323L10.323 4H4V20H15V17.5H16V21H3ZM6.5 17.5V16.5H12.5V17.5H6.5ZM6.5 14.73V13.73H10.5V14.73H6.5ZM14.5 13.98L11.212 10.692H8.5V6.692H11.212L14.5 3.404V13.98ZM16.5 11.623V5.762C17.0107 6.09867 17.3883 6.53834 17.633 7.081C17.8777 7.62367 18 8.16067 18 8.692C18 9.22334 17.8743 9.76067 17.623 10.304C17.3717 10.846 16.9973 11.2857 16.5 11.623ZM16.5 15.558V14.496C17.526 14.0027 18.366 13.224 19.02 12.16C19.6733 11.0973 20 9.94134 20 8.692C20 7.44267 19.6733 6.28667 19.02 5.224C18.3667 4.16134 17.5267 3.383 16.5 2.889V1.827C17.7973 2.341 18.8717 3.23034 19.723 4.495C20.5743 5.75967 21 7.15867 21 8.692C21 10.2253 20.5743 11.6243 19.723 12.889C18.8717 14.1537 17.7973 15.0433 16.5 15.558Z" fill="black"/>
</svg>
