<svg width="16" height="24" viewBox="0 0 16 24" fill="none" xmlns="http://www.w3.org/2000/svg">
<path d="M0.52 19V18.31H1.42V5.69H0.52V5H4.73V5.69H3.8V18.31H4.33C4.61 18.31 4.84333 18.1967 5.03 17.97C5.22333 17.7433 5.36667 17.43 5.46 17.03C5.56 16.63 5.61 16.1633 5.61 15.63H6.3V19H0.52ZM7.38359 19V18.31H8.32359V5.69H7.38359V5H11.4236C11.8236 5 12.2136 5.05667 12.5936 5.17C12.9736 5.28333 13.3169 5.46667 13.6236 5.72C13.9303 5.96667 14.1736 6.29667 14.3536 6.71C14.5403 7.11667 14.6336 7.61 14.6336 8.19C14.6336 8.76333 14.5469 9.25667 14.3736 9.67C14.2069 10.0833 13.9936 10.4267 13.7336 10.7C13.4736 10.9667 13.2003 11.1733 12.9136 11.32C12.6269 11.46 12.3603 11.5467 12.1136 11.58C12.3603 11.5867 12.6403 11.65 12.9536 11.77C13.2736 11.89 13.5836 12.0833 13.8836 12.35C14.1836 12.61 14.4303 12.96 14.6236 13.4C14.8236 13.84 14.9236 14.3833 14.9236 15.03C14.9236 15.9433 14.7669 16.6933 14.4536 17.28C14.1403 17.86 13.7369 18.2933 13.2436 18.58C12.7569 18.86 12.2469 19 11.7136 19H7.38359ZM10.6836 18.31H11.1736C11.3803 18.31 11.5769 18.19 11.7636 17.95C11.9569 17.7033 12.1136 17.3367 12.2336 16.85C12.3603 16.3633 12.4236 15.76 12.4236 15.04C12.4236 14.2133 12.3569 13.5767 12.2236 13.13C12.0969 12.6833 11.9336 12.3733 11.7336 12.2C11.5403 12.0267 11.3436 11.94 11.1436 11.94H10.6836V18.31ZM10.6836 11.25H11.1436C11.3703 11.25 11.5669 11.1533 11.7336 10.96C11.9003 10.76 12.0269 10.4367 12.1136 9.99C12.2003 9.54333 12.2436 8.94333 12.2436 8.19C12.2436 7.51667 12.1869 7 12.0736 6.64C11.9603 6.28 11.8136 6.03333 11.6336 5.9C11.4603 5.76 11.2803 5.69 11.0936 5.69H10.6836V11.25Z" fill="black"/>
</svg>
