<svg width="20" height="24" viewBox="0 0 20 24" fill="none" xmlns="http://www.w3.org/2000/svg">
<path d="M0.27 19V18.31H1.19V5.69H0.29V5H4.18L5.44 12.7H5.13L6.72 5H10.33V5.69H9.42V18.31H10.36V19H6.06V18.31H7.02V5.89H7.33L4.65 18.32H3.92L1.66 5.46H1.88V18.31H2.7V19H0.27ZM11.0555 19V18.31H11.9955V5.69H11.0555V5H15.0955C15.4955 5 15.8855 5.05667 16.2655 5.17C16.6455 5.28333 16.9888 5.46667 17.2955 5.72C17.6021 5.96667 17.8455 6.29667 18.0255 6.71C18.2121 7.11667 18.3055 7.61 18.3055 8.19C18.3055 8.76333 18.2188 9.25667 18.0455 9.67C17.8788 10.0833 17.6655 10.4267 17.4055 10.7C17.1455 10.9667 16.8721 11.1733 16.5855 11.32C16.2988 11.46 16.0321 11.5467 15.7855 11.58C16.0321 11.5867 16.3121 11.65 16.6255 11.77C16.9455 11.89 17.2555 12.0833 17.5555 12.35C17.8555 12.61 18.1021 12.96 18.2955 13.4C18.4955 13.84 18.5955 14.3833 18.5955 15.03C18.5955 15.9433 18.4388 16.6933 18.1255 17.28C17.8121 17.86 17.4088 18.2933 16.9155 18.58C16.4288 18.86 15.9188 19 15.3855 19H11.0555ZM14.3555 18.31H14.8455C15.0521 18.31 15.2488 18.19 15.4355 17.95C15.6288 17.7033 15.7855 17.3367 15.9055 16.85C16.0321 16.3633 16.0955 15.76 16.0955 15.04C16.0955 14.2133 16.0288 13.5767 15.8955 13.13C15.7688 12.6833 15.6055 12.3733 15.4055 12.2C15.2121 12.0267 15.0155 11.94 14.8155 11.94H14.3555V18.31ZM14.3555 11.25H14.8155C15.0421 11.25 15.2388 11.1533 15.4055 10.96C15.5721 10.76 15.6988 10.4367 15.7855 9.99C15.8721 9.54333 15.9155 8.94333 15.9155 8.19C15.9155 7.51667 15.8588 7 15.7455 6.64C15.6321 6.28 15.4855 6.03333 15.3055 5.9C15.1321 5.76 14.9521 5.69 14.7655 5.69H14.3555V11.25Z" fill="black"/>
</svg>
