<svg width="24" height="24" viewBox="0 0 24 24" fill="none" xmlns="http://www.w3.org/2000/svg">
<path d="M5.15626 7.875C5.2936 9.78141 6.70782 11.25 8.25001 11.25C9.7922 11.25 11.2088 9.78188 11.3438 7.875C11.4844 5.89172 10.1077 4.5 8.25001 4.5C6.39235 4.5 5.01563 5.92781 5.15626 7.875Z" stroke="black" stroke-width="1.5" stroke-linecap="round" stroke-linejoin="round"/>
<path d="M8.25 14.25C11.3048 14.25 14.2425 15.7673 14.9784 18.7223C15.0759 19.1133 14.8308 19.5 14.4291 19.5H2.07047C1.66875 19.5 1.425 19.1133 1.5211 18.7223C2.25703 15.72 5.19469 14.25 8.25 14.25Z" stroke="black" stroke-width="1.5" stroke-miterlimit="10"/>
<path d="M14.625 8.71594C14.7347 10.2384 15.8775 11.4375 17.1094 11.4375C18.3413 11.4375 19.4859 10.2389 19.5938 8.71594C19.7058 7.13203 18.5934 6 17.1094 6C15.6253 6 14.513 7.16109 14.625 8.71594Z" stroke="black" stroke-width="1.5" stroke-linecap="round" stroke-linejoin="round"/>
<path d="M14.3437 14.3437C15.1898 13.9561 16.1217 13.807 17.1094 13.807C19.5469 13.807 21.8953 15.0187 22.4836 17.3789C22.5609 17.6911 22.365 18 22.0444 18H16.7812" stroke="black" stroke-width="1.5" stroke-miterlimit="10" stroke-linecap="round"/>
</svg>
