<svg width="24" height="24" viewBox="0 0 24 24" fill="none" xmlns="http://www.w3.org/2000/svg">
<path d="M23.1562 1.01348C22.4556 1.40864 21.7703 1.83759 21.1092 2.3835L21.4523 4.19039C22.1214 4.39031 22.668 4.46531 23.1562 4.47V1.01348ZM18.5165 2.16248C17.8001 2.1585 16.994 2.28417 15.9931 2.48282L15.9828 2.48484L15.9725 2.48639C15.2801 2.58843 14.0603 3.05193 12.8569 4.30828L14.9321 4.85981C14.9776 4.78982 15.2103 4.43775 15.2546 4.36504C15.4948 4.51142 15.735 4.65775 15.9751 4.80403C15.3904 5.76379 14.7216 6.47072 13.9157 7.35975C13.8162 7.5809 13.9615 7.74407 14.1201 7.83506C14.3648 7.97245 14.781 7.9799 14.8906 7.93359C16.0124 7.19447 16.804 6.24947 17.5139 5.29589L17.7702 5.34107C18.3093 5.43628 19.011 5.39067 19.5846 5.20734C20.1048 5.04103 20.488 4.76873 20.6469 4.47197L20.2753 2.51484C19.7108 2.27043 19.1485 2.166 18.5164 2.16248H18.5165ZM10.6843 4.62736L9.3045 10.0642L9.75652 10.0781H14.5908L14.633 10.0683L14.9519 8.79839C14.5366 8.88745 14.0943 8.78822 13.707 8.57081C13.4639 8.43426 13.2372 8.23143 13.1154 7.94109C12.75 7.0065 13.8587 6.19279 14.4619 5.46843L10.6842 4.62736H10.6843ZM3.26072 9.42187L2.18259 11.5781H21.8174L20.7392 9.42187H15.6654L15.5005 10.0781H16.5V10.9219H7.5V10.0781H8.43056L8.59706 9.42187H3.26077H3.26072ZM1.92188 12.4219V22.8281H22.0781V12.4219H1.92188ZM2.57812 13.0781H21.4219V22.1719H2.57812V13.0781ZM3.42188 13.9219V19.4643L5.03916 15.9489L8.47791 17.4378L11.6022 15.289L13.3606 17.9737L15.7095 17.7583L17.1767 15.9146L20.5781 18.4981V13.9219H3.42188ZM11.3692 16.4733L7.12092 19.395L8.38702 21.3281H12.8685L13.7904 20.1698L11.3692 16.4733ZM5.46084 17.0511L3.49317 21.3281H7.37841L5.96311 19.1673L7.65736 18.0021L5.46084 17.051V17.0511ZM17.3233 17.0854L13.9469 21.3281H20.5347L20.5781 21.2735V19.5577L17.3233 17.0854ZM14.9821 18.6723L13.884 18.773L14.3437 19.4746L14.9821 18.6723Z" fill="black"/>
</svg>
