<svg width="24" height="24" viewBox="0 0 24 24" fill="none" xmlns="http://www.w3.org/2000/svg">
<g clip-path="url(#clip0_44_11)">
<path fill-rule="evenodd" clip-rule="evenodd" d="M17.553 16.106C17.772 15.9964 18.0236 15.971 18.2601 16.0346C18.4965 16.0982 18.7015 16.2464 18.836 16.451L18.894 16.553L20.894 20.553C20.9653 20.6956 21.0015 20.8533 20.9996 21.0128C20.9976 21.1723 20.9575 21.329 20.8826 21.4698C20.8078 21.6106 20.7003 21.7315 20.5692 21.8224C20.4381 21.9132 20.2871 21.9714 20.129 21.992L20 22H3.99999C3.84046 22.0001 3.68323 21.9619 3.54143 21.8888C3.39964 21.8157 3.27739 21.7098 3.1849 21.5798C3.0924 21.4498 3.03235 21.2996 3.00975 21.1417C2.98715 20.9837 3.00266 20.8227 3.05499 20.672L3.10499 20.552L5.10499 16.552C5.21708 16.3203 5.41421 16.1407 5.65534 16.0507C5.89648 15.9606 6.16304 15.967 6.39958 16.0686C6.63611 16.1701 6.82439 16.3589 6.92523 16.5957C7.02607 16.8325 7.03172 17.0991 6.94099 17.34L6.89399 17.447L5.61799 20H18.382L17.106 17.447C16.9876 17.2099 16.9681 16.9354 17.0519 16.684C17.1358 16.4325 17.316 16.2246 17.553 16.106ZM12 2C13.8565 2 15.637 2.7375 16.9497 4.05025C18.2625 5.36301 19 7.14348 19 9C19 11.382 17.711 13.317 16.377 14.69C15.6401 15.4384 14.83 16.1111 13.959 16.698L13.586 16.944L13.254 17.153C13.202 17.184 13.152 17.213 13.105 17.243L12.848 17.391C12.32 17.691 11.68 17.691 11.152 17.391L10.895 17.242L10.585 17.053C10.5278 17.017 10.4708 16.9807 10.414 16.944L10.041 16.698C9.16993 16.1111 8.35988 15.4384 7.62299 14.69C6.28899 13.317 4.99999 11.382 4.99999 9C4.99999 7.14348 5.73748 5.36301 7.05024 4.05025C8.36299 2.7375 10.1435 2 12 2ZM12 4C10.6739 4 9.40213 4.52678 8.46445 5.46447C7.52677 6.40215 6.99999 7.67392 6.99999 9C6.99999 10.636 7.88999 12.095 9.05699 13.296C9.7585 14.0055 10.5343 14.6375 11.371 15.181L11.711 15.398C11.816 15.463 11.913 15.521 12 15.572L12.29 15.398L12.629 15.181C13.4657 14.6375 14.2415 14.0055 14.943 13.296C16.11 12.096 17 10.636 17 9C17 7.67392 16.4732 6.40215 15.5355 5.46447C14.5978 4.52678 13.3261 4 12 4ZM12 6C12.7956 6 13.5587 6.31607 14.1213 6.87868C14.6839 7.44129 15 8.20435 15 9C15 9.79565 14.6839 10.5587 14.1213 11.1213C13.5587 11.6839 12.7956 12 12 12C11.2043 12 10.4413 11.6839 9.87867 11.1213C9.31606 10.5587 8.99999 9.79565 8.99999 9C8.99999 8.20435 9.31606 7.44129 9.87867 6.87868C10.4413 6.31607 11.2043 6 12 6ZM12 8C11.7348 8 11.4804 8.10536 11.2929 8.29289C11.1053 8.48043 11 8.73478 11 9C11 9.26522 11.1053 9.51957 11.2929 9.70711C11.4804 9.89464 11.7348 10 12 10C12.2652 10 12.5196 9.89464 12.7071 9.70711C12.8946 9.51957 13 9.26522 13 9C13 8.73478 12.8946 8.48043 12.7071 8.29289C12.5196 8.10536 12.2652 8 12 8Z" fill="black"/>
</g>
<defs>
<clipPath id="clip0_44_11">
<rect width="24" height="24" fill="white"/>
</clipPath>
</defs>
</svg>
