<svg width="24" height="24" viewBox="0 0 24 24" fill="none" xmlns="http://www.w3.org/2000/svg">
<g clip-path="url(#clip0_56_10)">
<path d="M0.8 8.79982L0.336 8.14862L0 8.38862V8.79982H0.8ZM12 0.799816L12.464 0.148616C12.3285 0.0521485 12.1663 0.00030899 12 0.00030899C11.8337 0.00030899 11.6715 0.0521485 11.536 0.148616L12 0.799816ZM23.2 8.79982H24V8.38862L23.664 8.14862L23.2 8.79982ZM4 13.5998V12.7998H3.2V13.5998H4ZM10.4 13.5998H11.2V12.7998H10.4V13.5998ZM1.6 23.9998V8.79982H0L0 23.9998H1.6ZM1.264 9.45102L12.464 1.45102L11.536 0.148616L0.336 8.14862L1.264 9.45102ZM11.536 1.45102L22.736 9.45102L23.664 8.14862L12.464 0.148616L11.536 1.45102ZM22.4 8.79982V23.9998H24V8.79982H22.4ZM4.8 23.9998V13.5998H3.2V23.9998H4.8ZM4 14.3998H10.4V12.7998H4V14.3998ZM9.6 13.5998V23.9998H11.2V13.5998H9.6ZM8 19.1998H10.4V17.5998H8V19.1998ZM17.6 12.7998V19.1998H19.2V12.7998H17.6ZM20.8 3.19982V7.19982H22.4V3.19982H20.8Z" fill="black"/>
</g>
<defs>
<clipPath id="clip0_56_10">
<rect width="24" height="24" fill="white"/>
</clipPath>
</defs>
</svg>
