<svg width="16" height="16" viewBox="0 0 16 16" fill="none" xmlns="http://www.w3.org/2000/svg">
<path d="M7.66667 2C8.1971 2 8.70581 2.21071 9.08088 2.58579C9.45595 2.96086 9.66667 3.46957 9.66667 4V8C9.66667 8.53043 9.45595 9.03914 9.08088 9.41421C8.70581 9.78929 8.1971 10 7.66667 10C7.13623 10 6.62753 9.78929 6.25245 9.41421C5.87738 9.03914 5.66667 8.53043 5.66667 8V4C5.66667 3.46957 5.87738 2.96086 6.25245 2.58579C6.62753 2.21071 7.13623 2 7.66667 2ZM12.3333 8C12.3333 10.3533 10.5933 12.2933 8.33333 12.62V14.6667H7V12.62C4.74 12.2933 3 10.3533 3 8H4.33333C4.33333 8.88406 4.68452 9.7319 5.30964 10.357C5.93477 10.9821 6.78261 11.3333 7.66667 11.3333C8.55072 11.3333 9.39857 10.9821 10.0237 10.357C10.6488 9.7319 11 8.88406 11 8H12.3333Z" fill="#919EAB"/>
</svg>
